<?xml version="1.0" standalone="no"?>
<!DOCTYPE svg PUBLIC "-//W3C//DTD SVG 1.1//EN" "http://www.w3.org/Graphics/SVG/1.1/DTD/svg11.dtd" >
<!--
2013-9-30: Created.
-->
<svg>
<metadata>
Created by iconfont
</metadata>
<defs>

<font id="iconfont" horiz-adv-x="1024" >
  <font-face
    font-family="iconfont"
    font-weight="500"
    font-stretch="normal"
    units-per-em="1024"
    ascent="896"
    descent="-128"
  />
    <missing-glyph />
    
    <glyph glyph-name="banliguocheng" unicode="&#59450;" d="M280.178679 319.036565M704.984804 486.505741M570.968531 613.075415M476.768079 67.486412 280.175609 264.067626l412.847769 412.878468c34.925441 34.900881 94.986351 31.674397 133.88836-7.238868l55.512315-55.512315c38.902008-38.854936 42.128493-98.951663 7.192819-133.88836L476.768079 67.486412zM363.272165 259.600895l109.029182-109.036345 373.525182 373.548718c13.257955 13.241582 12.021801 36.020378-2.727111 50.797943l-55.512315 55.512315c-14.735609 14.71719-37.525662 15.956414-50.785663 2.715855L363.272165 259.600895zM760.736573 395.14394 607.833137 548.059656 651.516032 591.747667 804.424584 438.820696ZM429.941588 114.307787 286.254048 75.083437l39.187511 143.722332-45.26595 45.260833-60.353576-221.264383c-2.638083-9.645684 0.107447-19.934005 7.150864-26.971281 7.060813-7.048533 17.342993-9.79918 26.982538-7.18054l221.269499 60.346413L429.941588 114.307787zM887.961162 374.782194l0-406.366148c0-16.32378-13.278421-29.601178-29.583782-29.601178L166.10869-61.185132c-16.307408 0-29.577642 13.277398-29.577642 29.601178L136.531048 632.959278c0 16.325827 13.270235 29.589922 29.577642 29.589922l406.353868 0L572.462558 714.168858 166.10869 714.168858c-44.783972 0-81.1973-36.413328-81.1973-81.20958l0-664.543232c0-44.771693 36.413328-81.21879 81.1973-81.21879l692.26869 0c44.784996 0 81.1973 36.447097 81.1973 81.21879L939.57468 374.782194 887.961162 374.782194zM256.854461 281.678726l-55.601342 0L201.253118 497.928908c0 65.729004 53.577243 89.591481 89.585341 89.591481l185.351452 0 0-55.631018-185.351452 0c-12.502755-0.261966-33.982976-5.060249-33.982976-33.960463L256.855484 281.678726zM692.44214 6.723513 507.084549 6.723513l0 55.632041 185.357592 0c12.501732 0.273223 33.982976 5.072529 33.982976 33.970696L726.425116 281.678726l55.595202 0 0-185.351452C782.020318 30.587014 728.444099 6.723513 692.44214 6.723513z"  horiz-adv-x="1024" />

    
    <glyph glyph-name="pingjiao" unicode="&#59451;" d="M902.029266 896 127.330037 896C64.418221 896.047994 13.392858 845.086623 13.344864 782.174806c0-0.023997 0-0.055993 0-0.07999l0-592.482931c0-62.911817 50.993367-113.905183 113.905183-113.905183l139.181895 0-68.631073-181.176433c-2.111725-5.671262 0.783898-11.982441 6.45516-14.086168 0.143981-0.055993 0.279964-0.103986 0.423945-0.15198l21.75717-7.599012c5.91923-2.127723 12.45438 0.799896 14.798075 6.639136l74.390323 196.374456L713.57378 75.706702l74.390323-196.374456c2.343695-5.83924 8.878845-8.76686 14.798075-6.639136l21.75717 7.599012c5.751252 1.871757 8.902842 8.054952 7.031085 13.814203-0.047994 0.143981-0.095988 0.287963-0.15198 0.423945l-68.631073 181.176433 139.181895 0c62.911817-0.047994 113.937179 50.913377 113.985173 113.825194 0 0.023997 0 0.055993 0 0.07999L1015.934449 782.094817C1015.934449 845.006633 964.941082 896 902.029266 896zM970.42037 189.611886c0-37.771087-30.620017-68.391104-68.391104-68.391104l0 0L127.330037 121.220782c-37.771087 0-68.391104 30.620017-68.391104 68.391104l0 0L58.938933 782.094817c0.047994 37.739091 30.652013 68.311114 68.391104 68.311114l774.699229 0c37.771087 0 68.391104-30.620017 68.391104-68.391104 0 0 0 0 0 0C970.42037 782.014827 970.42037 189.611886 970.42037 189.611886zM775.965664 677.548416c-8.870846 8.742863-23.124992 8.742863-31.995838 0L453.447616 387.586134 292.268582 548.685178c-8.870846 8.742863-23.124992 8.742863-31.995838 0l-15.997919-15.997919c-8.742863-8.870846-8.742863-23.124992 0-31.995838l176.936984-177.576901 0 0 15.997919-15.997919c8.870846-8.742863 23.124992-8.742863 31.995838 0l15.997919 15.997919 0 0L791.963583 629.2347c8.742863 8.870846 8.742863 23.124992 0 31.995838L775.965664 677.548416z"  horiz-adv-x="1024" />

    
    <glyph glyph-name="xiezuogongxiang" unicode="&#59452;" d="M552.609 421.816c59.358 44.854 98.317 115.821 98.317 196.509 0 135.854-108.909 245.979-243.267 245.979-134.354 0-243.259-110.125-243.259-245.979 0-79.309 37.755-149.084 95.379-194.067-123.67-55.925-210.921-179.225-215.338-324.192 0-22.383 18.142-40.533 40.529-40.533 22.383 0 40.533 18.15 40.533 40.533 10.059 144.867 126.317 267.084 270.662 273.45l21.913-0.109c91.121-3.458 171.187-49.625 220.604-120.142h92.252c-37.75 75.769-101.775 133.751-178.325 168.551zM411.079 456.091l-8.717 0.105c-87.121 2.601-157.237 73.967-157.237 162.679 0 90.371 72.459 163.633 161.834 163.633s161.808-73.263 161.808-163.633c0-88.884-70.334-160.434-157.687-162.784zM668.116 775.654c69.217-18.558 142.758-80.95 142.758-156.779 0-57.525-39.625-115.7-84.308-144.105l-0.050-0.046c-21.108-8.138-36.25-28.45-36.25-52.65l-0.083-5.267c0-30.075 23.958-54.1 53.259-55.991 0 0 1.491-0.217 1.642-0.417 47.167-22.317 92.033-60.667 127.034-107.134h100.55c-36.626 72.334-96.884 129.418-169.818 164.201l-0.317 3.267c56.033 46.125 90.467 118.592 90.467 197.591 0 129.179-98.867 233.401-224.059 243.475l-2.875-0.1c-22.892-1.237-41.401-19.404-41.401-42.601 0-23.991 19.45-43.445 43.45-43.445zM798.142 116.691c-21.042 0-39.825 9.125-53.042 23.458l-80.65-46.067c2-6.65 3.401-13.534 3.401-20.817 0-11.801-3.1-22.767-8.1-32.601l77.517-44.308c12.867 20.075 35.25 33.475 60.875 33.475 39.975 0 72.391-32.409 72.391-72.383 0-39.983-32.417-72.383-72.391-72.383s-72.391 32.4-72.391 72.383c0 2.667 0.5 5.217 0.8 7.817l-87.667 50.092 0.291 0.558c-12.175-9.3-27.209-15.034-43.709-15.034-39.983 0-72.391 32.4-72.391 72.383s32.409 72.383 72.391 72.383c21.042 0 39.817-9.134 53.042-23.45l80.642 46.067c-2 6.634-3.401 13.534-3.401 20.817 0 39.983 32.417 72.383 72.391 72.383s72.391-32.4 72.391-72.383-32.416-72.39-72.39-72.39z"  horiz-adv-x="1024" />

    
    <glyph glyph-name="guochengshujukaoheguanli" unicode="&#59453;" d="M676.47 683.407H210.862c-11.105 0-20.147-10.097-20.147-22.502 0-12.406 9.042-22.497 20.147-22.497h465.715c11.11 0 20.152 10.092 20.152 22.497-0.112 12.406-9.154 22.502-20.259 22.502z m20.147-145.766c0 12.452-9.964 22.487-22.318 22.487H213.033c-12.36 0-22.318-10.035-22.318-22.487 0-12.462 9.958-22.513 22.318-22.513h461.266c12.354-0.102 22.318 10.051 22.318 22.513z m224.102-477.65h-57.226L751.892 216.079c45.901 16.138 79.094 59.469 79.094 110.802 0 65.07-52.879 118.001-118.006 118.001-65.132 0-118.006-52.931-118.006-118.001 0-51.333 33.198-94.664 79.094-110.802L562.36 59.991h-57.236c-28.728 0-52.188-23.311-52.188-52.014v-83.937c0-28.703 23.347-52.04 52.188-52.04h415.483c28.728 0 52.193 23.337 52.193 52.04v83.937c0 28.703-23.352 52.014-52.081 52.014z m-281.108 266.89c0 40.371 32.85 73.318 73.37 73.318 40.525 0 73.365-32.947 73.365-73.318 0-40.131-32.502-72.847-72.684-73.303h-1.367c-40.177 0.456-72.684 33.07-72.684 73.303z m66.498-142.807l13.174 0.794 89.38-124.877h-191.37l88.816 124.083zM928.164-75.96c0-4.019-3.435-7.434-7.444-7.434H505.242c-4.004 0-7.439 3.415-7.439 7.434v83.937c0 3.983 3.436 7.434 7.439 7.434H920.72c4.009 0 7.444-3.451 7.444-7.434v-83.937zM95.836-30.223V843.971c0 4.009 3.436 7.434 7.439 7.434h675.292c4.004 0 7.434-3.425 7.434-7.434v-360.079c16.829-8.468 31.821-19.671 44.646-33.162V843.971C830.648 872.663 807.296 896 778.568 896H103.276C74.547 896 51.2 872.663 51.2 843.971v-874.194c0-28.692 23.347-52.029 52.076-52.029h305.137v42.414c0 0.819 0.225 1.5 0.225 2.294H103.276c-4.004-0.124-7.44 3.199-7.44 7.321z"  horiz-adv-x="1024" />

    
    <glyph glyph-name="xiezuoguanli" unicode="&#59454;" d="M817.493333-52.906667c-5.12 0-8.533333 1.706667-11.946666 5.12l-85.333334 85.333334H716.8c-5.12-1.706667-10.24-1.706667-15.36-1.706667H365.226667c-15.36 0-29.013333 5.12-42.666667 13.653333-6.826667 3.413333-11.946667 8.533333-17.066667 11.946667l-151.893333 153.6c-13.653333 13.653333-22.186667 34.133333-22.186667 54.613333s8.533333 39.253333 22.186667 54.613334 34.133333 22.186667 54.613333 22.186666c20.48 0 39.253333-8.533333 54.613334-22.186666l133.12-133.12h165.546666l1.706667 3.413333h-25.6c-42.666667 0-76.8 34.133333-76.8 76.8s34.133333 76.8 76.8 76.8H747.52c46.08 0 88.746667-23.893333 114.346667-63.146667l138.24-138.24c3.413333-3.413333 5.12-6.826667 5.12-11.946666s-1.706667-8.533333-5.12-11.946667l-168.96-168.96c-3.413333-5.12-8.533333-6.826667-13.653334-6.826667zM716.8 73.386667h3.413333c3.413333 0 6.826667 0 10.24-1.706667 3.413333 0 8.533333-1.706667 10.24-5.12l78.506667-78.506667 145.066667 145.066667-128 128c-1.706667 1.706667-1.706667 1.706667-1.706667 3.413333-18.773333 30.72-51.2 49.493333-87.04 49.493334h-10.24H539.306667c-23.893333 0-42.666667-18.773333-42.666667-42.666667s18.773333-42.666667 42.666667-42.666667H597.333333c6.826667 0 11.946667-3.413333 15.36-8.533333 3.413333-5.12 3.413333-11.946667-1.706666-17.066667l-25.6-37.546666c-3.413333-5.12-8.533333-6.826667-13.653334-6.826667H389.12c-5.12 0-8.533333 1.706667-11.946667 5.12L238.933333 298.666667c-17.066667 17.066667-44.373333 17.066667-61.44 0-8.533333-8.533333-11.946667-18.773333-11.946666-30.72s5.12-22.186667 11.946666-30.72l151.893334-151.893334c1.706667-1.706667 5.12-5.12 10.24-6.826666 0 0 1.706667 0 1.706666-1.706667 6.826667-5.12 15.36-6.826667 23.893334-6.826667h336.213333c3.413333 0 6.826667 0 10.24 1.706667 1.706667 1.706667 3.413333 1.706667 5.12 1.706667zM186.026667 622.933333c-18.773333 0-35.84 6.826667-49.493334 20.48-11.946667 13.653333-20.48 30.72-20.48 49.493334S122.88 728.746667 136.533333 742.4c13.653333 13.653333 30.72 20.48 49.493334 20.48 18.773333 0 35.84-6.826667 49.493333-20.48 13.653333-13.653333 20.48-30.72 20.48-49.493333 0-18.773333-6.826667-35.84-20.48-49.493334-13.653333-11.946667-30.72-20.48-49.493333-20.48z m0 105.813334c-10.24 0-18.773333-3.413333-25.6-10.24-6.826667-6.826667-10.24-15.36-10.24-25.6s3.413333-18.773333 10.24-25.6c13.653333-13.653333 37.546667-13.653333 49.493333 0 6.826667 6.826667 10.24 15.36 10.24 25.6s-3.413333 18.773333-10.24 25.6c-5.12 6.826667-15.36 10.24-23.893333 10.24zM800.426667 626.346667H344.746667c-35.84 0-66.56 29.013333-66.56 66.56S307.2 759.466667 344.746667 759.466667h455.68c35.84 0 66.56-29.013333 66.56-66.56-1.706667-37.546667-30.72-66.56-66.56-66.56zM344.746667 725.333333c-17.066667 0-32.426667-13.653333-32.426667-32.426666 0-18.773333 13.653333-32.426667 32.426667-32.426667h455.68c17.066667 0 32.426667 13.653333 32.426666 32.426667 0 18.773333-13.653333 32.426667-32.426666 32.426666H344.746667zM186.026667 442.026667c-18.773333 0-35.84 6.826667-49.493334 20.48-27.306667 27.306667-27.306667 71.68 0 98.986666 13.653333 13.653333 30.72 20.48 49.493334 20.48 18.773333 0 35.84-6.826667 49.493333-20.48 27.306667-27.306667 27.306667-71.68 0-98.986666-13.653333-13.653333-30.72-20.48-49.493333-20.48z m0 104.106666c-10.24 0-18.773333-3.413333-25.6-10.24-13.653333-13.653333-13.653333-35.84 0-49.493333 13.653333-13.653333 37.546667-13.653333 49.493333 0 13.653333 13.653333 13.653333 35.84 0 49.493333-5.12 6.826667-15.36 10.24-23.893333 10.24zM800.426667 445.44H344.746667c-35.84 0-66.56 29.013333-66.56 66.56s29.013333 66.56 66.56 66.56h455.68c35.84 0 66.56-29.013333 66.56-66.56-1.706667-37.546667-30.72-66.56-66.56-66.56z m-455.68 98.986667c-17.066667 0-32.426667-13.653333-32.426667-32.426667 0-18.773333 13.653333-32.426667 32.426667-32.426667h455.68c17.066667 0 32.426667 13.653333 32.426666 32.426667 0 18.773333-13.653333 32.426667-32.426666 32.426667H344.746667z"  horiz-adv-x="1024" />

    
    <glyph glyph-name="xiezuozhongxin" unicode="&#59455;" d="M951.466667 405.333333h-290.133334l-170.666666 76.8 21.333333 38.4 166.4-72.533333h230.4v46.933333l-200.533333 4.266667-204.8 76.8-256-149.333333-21.333334 34.133333 273.066667 162.133333 221.866667-85.333333h230.4zM558.933333 89.6l-221.866666 85.333333h-226.133334v136.533334h285.866667l170.666667-81.066667-17.066667-38.4-166.4 76.8h-230.4v-51.2h196.266667l204.8-76.8 260.266666 149.333333 21.333334-38.4z"  horiz-adv-x="1024" />

    
    <glyph glyph-name="guochengchutu" unicode="&#59456;" d="M430.728533 552.721067c0 75.605333-59.221333 136.942933-132.352 136.942933s-132.369067-61.3376-132.369066-136.942933c0-75.6224 59.2384-136.96 132.369066-136.96 73.1136 0 132.352 61.3376 132.352 136.96z m-132.488533-69.751467c-37.358933 0-67.652267 31.3344-67.652267 69.973333 0 38.690133 30.2592 70.0416 67.652267 70.0416 37.376 0 67.652267-31.351467 67.652267-70.024533-0.034133-38.656-30.3104-69.9904-67.652267-69.9904zM78.421333-75.144533c-16.878933 0-33.860267 22.357333-33.860266 39.8336V242.176c4.027733-3.1744 114.722133-81.425067 322.9696-95.982933 177.2032 11.7248 248.814933 44.817067 317.8496 95.982933 78.523733 67.054933 157.525333 69.290667 219.101866 59.050667a371.165867 371.165867 0 0 0 85.504 38.638933L989.696 831.624533c0 34.850133-27.3408 63.163733-61.064533 63.163734H62.122667C28.433067 894.805333 1.058133 866.5088 1.058133 831.624533V-64.682667c0-34.850133 27.3408-63.146667 61.064534-63.146666h666.504533c-5.034667 21.8112-12.2368 29.576533-13.585067 52.667733H78.421333zM74.922667 845.192533h841.984c17.851733 0 32.290133-14.967467 32.290133-33.399466v-459.810134c-54.698667 14.336-145.066667 15.086933-246.749867-36.829866-137.301333-91.733333-250.709333-127.317333-350.600533-125.218134-99.7376 2.167467-225.621333 71.68-309.248 109.738667V811.793067c0.034133 18.432 14.506667 33.399467 32.324267 33.399466zM1011.6608 235.008c-12.066133 10.837333-38.212267 7.5776-38.212267 7.5776L799.6416 35.720533l-88.610133 91.682134c-5.154133 5.358933-14.5408 4.266667-20.992-2.389334l-23.313067-24.098133c-6.434133-6.656-7.492267-16.384-2.321067-21.742933l130.730667-135.236267c2.833067-2.935467 6.946133-3.754667 11.1616-2.935467l1.5872 0.443734c2.901333 0.887467 5.802667 2.321067 8.2432 4.881066L1023.266133 197.802667c-0.034133 0.034133 1.194667 25.770667-11.605333 37.205333z"  horiz-adv-x="1024" />

    
    <glyph glyph-name="jiaoxueguocheng" unicode="&#59457;" d="M506.443696 610.656122c0 48.821335 0.11657 96.144324-0.122256 143.463048-0.038383 6.840645 4.503567 5.868284 9.106644 5.868284 73.711786 0.008529 147.416464 0.034118 221.122563 0.039804 90.314423 0.008529 180.624581-0.096667 270.933318 0.152109 8.579238 0.025588 11.800539-1.285109 11.772108-9.975229-0.355395-112.26931-0.206129-224.538621-0.216081-336.805088-0.005686-18.796136-12.410397-29.922845-33.43557-29.925689-147.42215-0.019902-294.838614-0.019902-442.250813 0.022746-26.132912 0.011373-36.995208 9.862925-36.972462 33.00341 0.038383 43.476193 0.194757 86.952385-0.122256 130.428578-0.044069 6.013285 2.103939 8.900515 8.007762 11.432349 55.60796 23.83706 111.69357 46.801269 165.407985 74.062916 10.157192 5.150386 15.943024 11.463624 14.227176 22.021702-1.75423 10.83955-8.063204 18.533143-19.946194 22.419744-5.613821 1.833839-10.228271 0.308483-15.232234-1.579376-48.316674-18.184856-95.00706-39.454542-141.947644-60.255106-2.912818-1.289373-5.878235-2.494874-10.332046-4.374202z m0 0M112.293477 607.012611c4.048661-11.355584 10.92911-20.357031 18.520349-29.148084 26.020607-30.12471 51.648858-60.594864 77.675152-90.719573 3.731648-4.314496 5.359358-8.502472 5.359358-14.183108-0.133629-182.866414-0.083873-365.732827-0.183384-548.60777-0.017059-30.123288-21.91224-52.41509-50.783115-52.353962-28.997397 0.055442-50.565614 22.323077-50.571301 52.525973-0.034118 225.020537-0.017059 450.046759-0.017059 675.063031v7.423493z m0 0M908.769424-47.417603c-26.265119 0-52.530238-0.036961-78.795357 0.009952-19.761389 0.03554-29.457989 9.597089-29.49495 29.096907-0.051177 29.059946-0.085295 58.117049 0.014216 87.176995 0.098089 30.542654 21.374883 52.463424 51.960184 52.787544 37.713106 0.396621 75.436163 0.40515 113.162063 0.079609 31.257709-0.271522 52.614111-22.506461 52.655337-53.995888 0.036961-28.779895 0.024167-57.561211 0.024167-86.336841-0.005686-18.419417-9.995132-28.723032-28.219792-28.789846-27.099587-0.098089-54.20486-0.028432-81.305868-0.028432z m0 0M630.205062-47.413338c-26.826643-0.004265-53.6476-0.075344-80.472822 0.022746-17.943188 0.066814-28.087585 10.090378-28.162929 27.968172-0.120834 29.62147-0.177698 59.238676 0.024167 88.855881 0.196178 29.631421 21.299539 51.701457 50.898264 52.154941 38.550417 0.592799 77.125 0.624074 115.671152 0.078187 29.944169-0.419366 51.168364-22.952837 51.174051-52.818819 0-29.335733 0.009951-58.677152 0.004265-88.012884 0-17.914756-9.968122-28.148713-27.820328-28.219792-27.108116-0.110883-54.213389-0.028432-81.31582-0.028432z m0 0M309.965651 426.46053c-18.046963 0.771918-33.36307 6.53074-44.812479 19.796929-42.509518 49.233593-84.895359 98.566697-126.971294 148.172744-14.876839 17.54088-12.182944 42.513783 5.070777 56.901598 17.54088 14.632327 42.508096 12.266817 57.57827-6.070148 32.453258-39.470179 64.843967-78.997222 96.73428-118.918042 10.701657-13.39413 23.073671-17.259407 39.427532-13.222119 19.285159 4.765137 38.809144 8.619042 58.328864 12.362063 21.923613 4.2093 43.402271-9.779051 47.762258-30.558292 4.780775-22.790777-8.429972-43.791784-31.397024-48.684863-31.108443-6.618878-62.339143-12.643536-93.530038-18.851578-2.904289-0.582848-5.90951-0.68378-8.191146-0.928292z m0 0M162.977083 881.027915c50.554241-0.011373 90.792074-40.542051 90.60869-91.269725-0.172011-49.03315-41.382205-89.659074-90.637122-89.34917C112.52093 700.726033 72.494913 740.72504 72.500599 790.791679c0.005686 50.120659 40.243519 90.247609 90.476484 90.236236z m0 0M909.311046 190.93025c-34.915436-0.204708-63.446554 28.046359-63.59582 62.976011-0.153531 35.370341 28.28092 64.10901 63.465035 64.13602 34.744846 0.024167 63.671164-28.639158 63.750772-63.175032 0.078187-35.459901-28.046359-63.725184-63.619987-63.936999z m0 0M630.126875 190.913191c-34.764748-0.075344-63.221944 28.359107-63.372631 63.329984-0.149266 34.702199 28.265283 63.446554 63.085472 63.800528 34.680875 0.365346 64.020872-28.279498 64.202835-62.670371 0.1976-35.978778-27.965329-64.381954-63.915676-64.460141z m0 0M674.073611 653.836626c-0.322699-3.970474-5.042346-5.392054-9.162085-7.402169-60.611923-29.647059-120.039669-58.701319-178.408338-87.255182-8.924682-4.365673-18.064022-8.357471-26.633308-13.338689-9.167772-5.336613-8.051831 3.920719-11.105386 7.124961-4.459498 4.691215 0.02701 5.974902 3.214193 7.530111 64.118961 31.38423 131.469175 64.381954 207.817993 101.631624 8.078841 3.936356 14.731837 0.705104 14.276931-8.290656z m0 0"  horiz-adv-x="1312" />

    
    <glyph glyph-name="xiezuokongjianguanli" unicode="&#59458;" d="M1079.854545 896c27.927273 0 46.545455-18.618182 46.545455-46.545455v-902.981818c0-27.927273-18.618182-46.545455-46.545455-46.545454H46.545455c-27.927273 0-46.545455 18.618182-46.545455 46.545454V849.454545C9.309091 877.381818 27.927273 896 55.854545 896h1024z m-930.90909-865.745455c0 27.927273 18.618182 46.545455 46.545454 46.545455h46.545455l27.927272 55.854545-18.618181-37.236363c0 9.309091 9.309091 9.309091 9.30909 18.618182l-37.236363 27.927272c-9.309091 9.309091-9.309091 18.618182-9.309091 37.236364 0 9.309091 9.309091 18.618182 9.309091 27.927273l93.090909 102.4c9.309091 9.309091 18.618182 9.309091 27.927273 9.309091 9.309091 0 18.618182-9.309091 27.927272-9.309091l27.927273-27.927273c9.309091 0 9.309091 9.309091 18.618182 9.309091s9.309091 9.309091 18.618182 9.309091v27.927273c0 18.618182 18.618182 46.545455 46.545454 46.545454h139.636364c27.927273 0 46.545455-18.618182 46.545454-46.545454v-46.545455c9.309091 0 9.309091-9.309091 18.618182-9.309091l18.618182-9.309091 46.545455 37.236364c0 9.309091 18.618182 18.618182 27.927272 18.618182 9.309091 0 18.618182 0 27.927273-9.309091l93.090909-93.090909c9.309091-9.309091 9.309091-18.618182 9.309091-27.927273s0-37.236364-9.309091-46.545455l-27.927273-27.927272c0-9.309091 9.309091-9.309091 9.309091-18.618182l9.309091-18.618182h46.545455c27.927273 0 46.545455-18.618182 46.545454-46.545455v-37.236363h55.854546V579.490909H93.090909v-586.472727h55.854546v37.236363z m670.254545-9.30909c-9.309091 27.927273-18.618182 55.854545-37.236364 74.472727l18.618182-37.236364c-9.309091 27.927273-18.618182 55.854545-18.618182 65.163637 0 9.309091 9.309091 18.618182 9.309091 27.927272l27.927273 27.927273-37.236364 37.236364-27.927272-27.927273c-9.309091-9.309091-18.618182-9.309091-27.927273-9.309091-9.309091 0-18.618182 0-18.618182 9.309091-27.927273 0-37.236364 9.309091-46.545454 9.309091-9.309091 9.309091-18.618182 9.309091-37.236364 18.618182-18.618182 0-37.236364 18.618182-37.236364 37.236363v37.236364h-46.545454v-37.236364c0-18.618182-9.309091-37.236364-27.927273-37.236363-9.309091 0-27.927273-9.309091-37.236364-9.309091-37.236364-18.618182-55.854545-37.236364-65.163636-37.236364-9.309091 0-27.927273 9.309091-27.927273 18.618182l-27.927272 27.927273-37.236364-37.236364 27.927273-27.927273c9.309091-18.618182 18.618182-37.236364 9.309091-55.854545-18.618182-9.309091-18.618182-27.927273-27.927273-37.236364 0-9.309091-9.309091-18.618182-9.309091-37.236363 0-9.309091-9.309091-18.618182-18.618182-27.927273h74.472727c9.309091 46.545455 27.927273 93.090909 65.163637 121.018182 27.927273 27.927273 74.472727 46.545455 130.327272 46.545454 93.090909 0 176.872727-74.472727 195.49091-158.254545h74.472727c-9.309091 0-18.618182 9.309091-18.618182 18.618182zM567.854545 104.727273c-37.236364 0-74.472727-18.618182-102.4-37.236364-27.927273-27.927273-37.236364-37.236364-37.236363-74.472727h279.272727C688.872727 58.181818 633.018182 104.727273 567.854545 104.727273z m400.29091 660.945454c27.927273 0 46.545455-18.618182 46.545454-46.545454s-18.618182-46.545455-46.545454-46.545455-46.545455 18.618182-46.545455 46.545455 27.927273 46.545455 46.545455 46.545454z m-102.4 0c27.927273 0 46.545455-18.618182 46.545454-46.545454s-18.618182-37.236364-46.545454-37.236364c-18.618182 0-37.236364 18.618182-37.236364 37.236364s18.618182 46.545455 37.236364 46.545454z m-102.4 0c27.927273 0 46.545455-18.618182 46.545454-46.545454s-27.927273-37.236364-46.545454-37.236364c-27.927273 0-46.545455 18.618182-46.545455 46.545455s18.618182 37.236364 46.545455 37.236363zM93.090909 635.345455H1033.309091V812.218182H93.090909v-176.872727z"  horiz-adv-x="1126" />

    
    <glyph glyph-name="xiezuogongsi-" unicode="&#59459;" d="M411.685888 477.628416h85.942272v-85.94432h-85.942272zM528.713728 477.628416h85.94432v-85.94432h-85.94432zM411.685888 360.597504h85.942272v-85.942272h-85.942272zM528.713728 360.597504h85.94432v-85.942272h-85.94432zM214.8864 404.769792V555.112448l296.571904 171.3152L808.02816 555.169792v-150.4h58.171392V588.770304L511.458304 793.511936l-354.716672-204.8v-183.942144zM808.02816 348.655616v-135.999488L511.485952 41.398272 214.8864 212.59776V348.655616h-58.144768v-169.657344l354.74432-204.686336 354.7136 204.74368V348.655616z"  horiz-adv-x="1024" />

    
    <glyph glyph-name="renjixiezuo" unicode="&#59460;" d="M512-118.857143C234.715429-118.857143 9.142857 106.733714 9.142857 384 9.142857 661.284571 234.715429 886.857143 512 886.857143 789.266286 886.857143 1014.857143 661.284571 1014.857143 384c0-277.266286-225.590857-502.857143-502.857143-502.857143z m0 987.428572C244.809143 868.571429 27.428571 651.190857 27.428571 384S244.809143-100.571429 512-100.571429 996.571429 116.809143 996.571429 384 779.190857 868.571429 512 868.571429zM749.714286 182.857143m-91.428572 0a91.428571 91.428571 0 1 1 182.857143 0 91.428571 91.428571 0 1 1-182.857143 0ZM749.714286 82.285714c-55.442286 0-100.571429 45.129143-100.571429 100.571429s45.129143 100.571429 100.571429 100.571428 100.571429-45.129143 100.571428-100.571428-45.129143-100.571429-100.571428-100.571429z m0 182.857143c-45.366857 0-82.285714-36.918857-82.285715-82.285714s36.918857-82.285714 82.285715-82.285714 82.285714 36.918857 82.285714 82.285714-36.918857 82.285714-82.285714 82.285714zM411.428571 576m-82.285714 0a82.285714 82.285714 0 1 1 164.571429 0 82.285714 82.285714 0 1 1-164.571429 0ZM411.428571 484.571429c-50.413714 0-91.428571 41.014857-91.428571 91.428571s41.014857 91.428571 91.428571 91.428571 91.428571-41.014857 91.428572-91.428571-41.014857-91.428571-91.428572-91.428571z m0 164.571428c-40.338286 0-73.142857-32.804571-73.142857-73.142857s32.804571-73.142857 73.142857-73.142857 73.142857 32.804571 73.142858 73.142857-32.804571 73.142857-73.142858 73.142857zM630.857143 576m-82.285714 0a82.285714 82.285714 0 1 1 164.571428 0 82.285714 82.285714 0 1 1-164.571428 0ZM630.857143 484.571429c-50.413714 0-91.428571 41.014857-91.428572 91.428571s41.014857 91.428571 91.428572 91.428571 91.428571-41.014857 91.428571-91.428571-41.014857-91.428571-91.428571-91.428571z m0 164.571428c-40.338286 0-73.142857-32.804571-73.142857-73.142857s32.804571-73.142857 73.142857-73.142857 73.142857 32.804571 73.142857 73.142857-32.804571 73.142857-73.142857 73.142857zM292.571429 182.857143m-91.428572 0a91.428571 91.428571 0 1 1 182.857143 0 91.428571 91.428571 0 1 1-182.857143 0ZM292.571429 82.285714c-55.460571 0-100.571429 45.129143-100.571429 100.571429s45.110857 100.571429 100.571429 100.571428 100.571429-45.129143 100.571428-100.571428-45.110857-100.571429-100.571428-100.571429z m0 182.857143c-45.366857 0-82.285714-36.918857-82.285715-82.285714s36.918857-82.285714 82.285715-82.285714 82.285714 36.918857 82.285714 82.285714-36.918857 82.285714-82.285714 82.285714zM587.264 508.708571l14.043429-11.721142-228.608-274.249143-14.061715 11.721143zM455.021714 508.708571l228.571429-274.285714-14.043429-11.702857-228.571428 274.285714z"  horiz-adv-x="1024" />

    
    <glyph glyph-name="caigouguochengjishuwenjianshenpifafangliucheng" unicode="&#59461;" d="M219.431414 896v-731.425988H0c0-291.145199 143.360651-292.574012 146.287006-292.574012H804.649975c219.362686 0 219.362686 146.288815 219.362685 146.288815V896H219.431414z m512.009043-950.855593l-581.223309-0.141072c-17.860171 2.28791-60.286893 34.145029-73.218561 146.429887h654.44187v-146.288815z m219.429605 73.144408c0-0.716215 0-73.144407-146.290624-73.144408V164.574012h-512.003617V822.857401h658.296049v-804.568586h-0.001808zM365.720228 676.566778h512.009043v-73.142599H365.720228v73.142599zM365.720228 530.28158h512.009043v-73.144407H365.720228v73.144407zM365.720228 383.992766h512.009043v-73.129939H365.720228v73.129939z"  horiz-adv-x="1024" />

    
    <glyph glyph-name="xiezuonengli" unicode="&#59462;" d="M504.4 116c-32.5 0-63.2 13.6-86.4 38.3-24 25.4-36.8 59.7-34.5 91.7-0.4 36 16.7 67.7 50.9 94.2V397H205c-43 0-78 35-78 78V646c0 43 35 78 78 78h607c40.8 0 74-33.2 74-74v-178.9c0-40.8-33.2-74-74-74H577.6v-56.7c35.2-26.8 53-58.5 52.8-94.4 1.8-34.5-9.5-66.6-31.7-90.5-23.1-24.8-55.9-38.8-92.3-39.4-0.7-0.1-1.4-0.1-2-0.1zM205 690c-24.3 0-44-19.7-44-44v-170.9c0-24.3 19.7-44 44-44h246.4c9.4 0 17-7.6 17-17v-82.4c0-5.5-2.7-10.7-7.2-13.9-29.9-21.2-44.2-44.7-43.7-72v-1.7c-1.8-22.9 7.7-47.8 25.3-66.6 17.1-18.2 39.5-28 63-27.6 27.2 0.5 51.3 10.6 68 28.6 16 17.2 24 40.6 22.6 66v1.1c0.3 27-14.6 50.6-45.5 72-4.6 3.2-7.3 8.4-7.3 14V414c0 9.4 7.6 17 17 17H812c22.1 0 40 17.9 40 40V650c0 22.1-17.9 40-40 40H205zM326.4 600H229c-9.4 0-17 7.6-17 17s7.6 17 17 17h97.4c9.4 0 17-7.6 17-17s-7.6-17-17-17zM456.4 486.2h-80.2c-9.4 0-17 7.6-17 17V618c0 9.4 7.6 17 17 17h80.2c9.4 0 17-7.6 17-17s-7.6-17-17-17h-63.2v-80.8h63.2c9.4 0 17-7.6 17-17s-7.6-17-17-17zM505 487.7c-1.9 0-3.8 0.3-5.7 1-8.8 3.1-13.5 12.9-10.3 21.7l42.1 118.3c2.3 6.6 8.4 11 15.4 11.3 6.9 0.2 13.4-3.8 16.2-10.1l52.2-118.3c3.8-8.6-0.1-18.6-8.7-22.4-8.6-3.8-18.6 0.1-22.4 8.7l-34.9 79.2L521 499c-2.5-6.9-9-11.3-16-11.3zM764 486.2c-9.4 0-17 7.6-17 17V557l-27.4-45.3c-3.1-5.1-8.6-8.2-14.5-8.2s-11.5 3.1-14.5 8.2L663 557.1v-53.8c0-9.4-7.6-17-17-17s-17 7.6-17 17V618c0 7.6 5.1 14.3 12.4 16.4 7.3 2 15.2-1 19.1-7.6l44.4-73.4 44.4 73.4c4 6.5 11.8 9.6 19.1 7.6 7.3-2.1 12.4-8.7 12.4-16.4v-114.8c0.2-9.4-7.4-17-16.8-17zM278.7 482.8c-9.4 0-17 7.6-17 17V612.9c0 9.4 7.6 17 17 17s17-7.6 17-17v-113.1c0-9.4-7.6-17-17-17zM456.4 545.3h-76.2c-9.4 0-17 7.6-17 17s7.6 17 17 17h76.2c9.4 0 17-7.6 17-17s-7.6-17-17-17zM582.3 513H522c-9.4 0-17 7.6-17 17s7.6 17 17 17h60.3c9.4 0 17-7.6 17-17s-7.6-17-17-17zM820 56H203c-39.1 0-71 31.9-71 71V296c0 39.1 31.9 71 71 71h166.6c9.4 0 17-7.6 17-17s-7.6-17-17-17H203c-20.4 0-37-16.6-37-37v-169c0-20.4 16.6-37 37-37h617c20.4 0 37 16.6 37 37V296c0 20.4-16.6 37-37 37H650.7c-9.4 0-17 7.6-17 17s7.6 17 17 17H820c39.1 0 71-31.9 71-71v-169c0-39.1-31.9-71-71-71z"  horiz-adv-x="1024" />

    
    <glyph glyph-name="collaborative-centre" unicode="&#59463;" d="M841.063 804H723.969C707.375 804 693.875 790.5 693.875 773.906v-19.2188c0-16.5938-13.4063-30-30-30H360.125c-16.5938 0-30 13.4063-30 30V773.906c0 16.5938-13.5 30.0938-30.0938 30.0938H182.937c-33.0938 0-60-26.9063-60-60v-720c0-33.0938 26.9063-60 60-60h658.125c33.0938 0 60 26.9063 60 60V744c0 33.0938-26.9063 60-60 60Zm0-780H182.937V744h87.8438c5.34375-44.625 43.4063-79.3125 89.3438-79.3125h303.75c46.0313 0 84.0938 34.6875 89.3438 79.3125H841.063v-720ZM722 565.875H302c-16.5938 0-30-13.4063-30-30s13.4063-30 30-30h420c16.5938 0 30 13.4063 30 30s-13.4063 30-30 30ZM722 445.875H302c-16.5938 0-30-13.4063-30-30s13.4063-30 30-30h420c16.5938 0 30 13.4063 30 30s-13.4063 30-30 30ZM482.469 325.875h-180c-16.5938 0-30-13.4063-30-30s13.4063-30 30-30h180c16.5938 0 30 13.4063 30 30s-13.4063 30-30 30Z"  horiz-adv-x="1024" />

    
    <glyph glyph-name="tianjiaxiezuoren" unicode="&#60410;" d="M246.4 293.696a32 32 0 1 0 32.256-55.296C164.736 171.968 96 64 96-52.8a32 32 0 1 0-64 0c0 140.736 81.664 269.056 214.4 346.496z m488.512 3.072a32 32 0 0 0-35.328-53.376 431.36 431.36 0 0 1-238.528 70.4 32 32 0 0 0 0 64 495.36 495.36 0 0 0 273.856-81.024z m85.632-217.856v107.456a32 32 0 0 0 64 0v-107.456H992a32 32 0 1 0 0-64h-107.456v-107.392a32 32 0 0 0-64 0v107.392h-107.392a32 32 0 0 0 0 64h107.392z m-351.552 298.88a32 32 0 1 0 0-64A290.56 290.56 0 0 0 178.944 604.8 290.56 290.56 0 0 0 468.992 896a290.56 290.56 0 0 0 290.112-291.136c0-53.12-14.144-104.128-40.64-148.736a32 32 0 0 0-55.04 32.64 226.368 226.368 0 0 1 31.68 116.096A226.56 226.56 0 0 1 468.992 832a226.56 226.56 0 0 1-226.048-227.136 226.56 226.56 0 0 1 226.048-227.072z"  horiz-adv-x="1024" />

    
    <glyph glyph-name="fuzerenxiezuoren" unicode="&#59465;" d="M393.472 817.1008c108.4416 0 196.7104-88.7296 196.7104-197.6832 0-109.0048-88.2688-197.6832-196.7104-197.6832-108.4416 0-196.7616 88.6784-196.7616 197.632 0 109.056 88.32 197.7344 196.7616 197.7344z m0 78.6944c-152.1152 0-275.456-123.7504-275.456-276.3776 0-152.6784 123.3408-276.3776 275.456-276.3776 152.064 0 275.456 123.6992 275.456 276.3776 0 152.6272-123.392 276.3776-275.456 276.3776zM747.5712-87.85919999999999a39.3216 39.3216 0 0 0-39.3216 39.3216v74.24c0 174.2848-141.2096 316.0064-314.7776 316.0064-173.568 0-314.7776-141.7216-314.7776-316.0576v-74.1888a39.3216 39.3216 0 1 0-78.6944 0v74.24c0 217.6 176.4864 394.7008 393.472 394.7008 216.9344 0 393.472-177.0496 393.472-394.752v-74.1888a39.3216 39.3216 0 0 0-39.3728-39.3216z m28.0064 457.472a39.3216 39.3216 0 0 0-6.7584 78.1824 118.8864 118.8864 0 0 1 47.2064 214.016c-25.6 18.0224-57.2928 25.088-88.1152 19.6608a39.3216 39.3216 0 0 0-13.824 77.3632 194.6624 194.6624 0 0 0 147.0976-32.768 197.632 197.632 0 0 0-78.7456-355.84 50.176 50.176 0 0 0-6.8608-0.6144zM984.4224 46.38720000000001a39.3216 39.3216 0 0 0-39.3216 39.3216v55.9616a227.8912 227.8912 0 0 1-227.1744 228.0448 39.3216 39.3216 0 1 0 0 78.6944 306.688 306.688 0 0 0 305.8688-306.7392v-55.9616a39.3216 39.3216 0 0 0-39.3728-39.3216z"  horiz-adv-x="1024" />

    
    <glyph glyph-name="xiezuo" unicode="&#59466;" d="M108.616852 806.473414h657.192335v-317.722096h61.270515v338.143881a40.833248 40.833248 0 0 1-40.84873 40.853891H88.189906a40.838409 40.838409 0 0 1-40.853891-40.853891v-759.822513a40.838409 40.838409 0 0 1 40.853891-40.84873h404.931426v61.270515H108.616852V806.473414zM983.70865 290.442731V694.1665a40.838409 40.838409 0 0 1-40.848731 40.853892h-78.415112v-61.275676h57.988166v-380.644108M922.432973 88.691806v-133.931194l-657.192335 0.005161v41.633191H203.964962v-62.060137a40.833248 40.833248 0 0 1 40.848731-40.848731h698.046226a40.838409 40.838409 0 0 1 40.848731 40.848731v157.010856M243.420243 677.285111h384.514802v-61.275676H243.420243V677.285111z m0-133.275757h384.514802v-61.275676H243.420243V544.009354z m0-133.275757h257.974054v-61.275676H243.420243V410.733597z m686.816051-202.932776l-140.635238 140.526857-43.305331-43.30017 89.356275-89.361436H385.588275v-61.275676h447.52455l-88.138297-88.138297 43.295009-43.305331 163.415566 163.405243-21.448809 21.44881z"  horiz-adv-x="1024" />

    
    <glyph glyph-name="huaban1" unicode="&#59467;" d="M743.822222 124.871111a105.813333 105.813333 0 0 1-108.088889-82.204444h-173.511111C423.253333 42.666667 398.222222 87.608889 398.222222 126.577778V298.666667h234.666667c17.635556-56.888889 56.888889-69.12 100.977778-69.12a109.511111 109.511111 0 0 1 111.217777 109.226666 110.933333 110.933333 0 0 1-111.217777 110.933334A131.697778 131.697778 0 0 1 632.888889 384H398.222222v140.231111c56.888889 20.195556 125.44 87.893333 125.44 168.391111A176.071111 176.071111 0 0 1 347.306667 867.555556a170.666667 170.666667 0 0 1-168.96-174.648889A167.822222 167.822222 0 0 1 312.888889 524.231111v-398.222222C312.888889 36.977778 372.622222-42.666667 462.222222-42.666667h178.915556a132.266667 132.266667 0 0 1 102.684444-60.302222 113.777778 113.777778 0 1 1 0 227.555556z"  horiz-adv-x="1024" />

    
    <glyph glyph-name="lui-collaborative" unicode="&#59468;" d="M993 108.63999999999999H38V859h955z m-886.79 68.22h818.58V790.79H106.21zM481.39 108.63999999999999h68.21v-136.43h-68.21zM242.64-27.789999999999964h545.71V-96H242.64zM242.64 654.36h68.21v-68.21h-68.21zM242.64 517.9300000000001h68.21v-68.21h-68.21zM242.64 381.5h68.21v-68.21h-68.21zM379.07 654.36h204.64v-68.21H379.07zM379.07 517.9300000000001h272.86v-68.21H379.07zM379.07 381.5h409.29v-68.21H379.07z"  horiz-adv-x="1024" />

    
    <glyph glyph-name="cunchuguocheng" unicode="&#59469;" d="M892 216.7V10H134V216.7h758m69 68.9H65V-59h896V285.6zM767.8 763.1L875 349.6H151l107.2 413.5h509.6m55.3 69H202.9L65 280.7h896L823.1 832.1zM516.7 407.3L689 613.8H344.4l172.3-206.5z m237.5-259.6v-68.9h68.9v68.9h-68.9z"  horiz-adv-x="1024" />

    
    <glyph glyph-name="shengchanguochengjiankong" unicode="&#60115;" d="M902.4 831.1H120.5c-30.8 0-55.8-25-55.8-55.8v-781.9c0-30.8 25-55.8 55.8-55.8h781.9c30.8 0 55.8 25 55.8 55.8V775.2c0 30.9-25 55.9-55.8 55.9zM455.6 49.2c0-30.8-25-55.8-55.8-55.8-30.8 0-55.8 25-55.8 55.8 0 30.8 25 55.9 55.8 55.9 30.8 0 55.8-25.1 55.8-55.9z m223.4 0c0-30.8-25-55.8-55.8-55.8-30.8 0-55.8 25-55.8 55.8 0 30.8 25 55.9 55.8 55.9 30.8 0 55.8-25.1 55.8-55.9z m223.4 111.7H120.5V775.2h781.9v-614.3zM729.3 339.3l87.1 147.8c9.7-16.4 18.3-33.7 25.1-51.8 15.4-40.7-5.1-86.2-45.9-101.6-9.3-3.5-18.7-5.1-27.9-5.1-13.7-0.1-26.8 4.1-38.4 10.7z m-241.9-80.4L712.6 641c5.2 8.8 14.5 13.8 24.1 13.8 4.8 0 9.7-1.2 14.1-3.9 13.3-7.8 17.7-25 9.9-38.3L535.5 230.5c-5.2-8.8-14.5-13.7-24.1-13.7-4.8 0-9.7 1.2-14.1 3.9-13.3 7.7-17.7 24.9-9.9 38.2z m-260.1 74.7c40.7-15.4 86.2 5.1 101.6 45.9 27.6 73.1 97.2 122.9 174.8 126L590 654.7c-25.6 5.8-51.9 8.8-78.7 8.8-73 0-143.1-22.2-202.7-64.1-58.2-41-102.2-97.7-127.2-164.1-15.3-40.7 5.2-86.2 45.9-101.7z m-9 87.8c31.4 82.8 97.8 149.6 180 181.6l23.8-75.5C362.8 502.9 314.9 454 292 393.6c-5.9-15.8-20.9-25.5-36.9-25.5-4.6 0-9.3 0.8-14 2.6-20.2 7.5-30.4 30.3-22.8 50.7z m0 0"  horiz-adv-x="1024" />

    
    <glyph glyph-name="guochenggenzong" unicode="&#59470;" d="M958 140.2H66v-63.9h567.6l-73.5-138.6 386 184.1c7.2 3.3 12 10.4 12.2 18.3h-0.3zM861.2 830.4c-54.1 0-98-43.9-98-98 0-26.6 10.6-50.7 27.8-68.3L652.1 398.5c-4.3 0.6-8.7 0.9-13.1 0.9-9.6 0-18.9-1.4-27.7-4l-83.4 116.9c11.4 16 18.2 35.7 18.2 56.8 0 54.1-43.9 98-98 98s-98-43.9-98-98c0-14.3 3.1-27.9 8.6-40.1l-150-140.9c-13.6 7.2-29.1 11.2-45.6 11.2-54.1 0-98-43.9-98-98s43.9-98 98-98 98 43.9 98 98c0 14.3-3.1 27.9-8.6 40.1l150 140.9c13.6-7.2 29.1-11.2 45.6-11.2 9.6 0 18.9 1.4 27.7 4l83.4-116.9c-11.4-16-18.2-35.7-18.2-56.8 0-54.1 43.9-98 98-98s98 43.9 98 98c0 26.6-10.6 50.7-27.8 68.3L848 635.2c4.3-0.6 8.7-0.9 13.1-0.9 54.1 0 98 43.9 98 98s-43.8 98.1-97.9 98.1z"  horiz-adv-x="1024" />

    
    <glyph glyph-name="shezhaozhenxuanguocheng" unicode="&#59472;" d="M896-32H160v832h428.8v-64H224v-704H832V441.6h64zM704 518.4C640 518.4 582.4 576 582.4 640S640 761.6 704 761.6s121.6-57.6 121.6-121.6S768 518.4 704 518.4z m0 192c-38.4 0-70.4-32-70.4-70.4s32-70.4 70.4-70.4 70.4 32 70.4 70.4-32 70.4-70.4 70.4zM759.232 562.56l49.408 40.64 85.44-103.68-49.408-40.704zM352 448h320v-64h-320zM352 256h320v-64h-320z"  horiz-adv-x="1024" />

    
    <glyph glyph-name="xiezuojilu" unicode="&#59473;" d="M574.7 628.3H179.2c-14.4 0-26-11.7-26-26 0-14.4 11.7-26 26-26h395.5c14.4 0 26 11.7 26 26s-11.6 26-26 26zM600.7 420.1c0 14.4-11.7 26-26 26H179.2c-14.4 0-26-11.7-26-26 0-14.4 11.7-26 26-26h395.5c14.4 0 26 11.6 26 26zM179.2 269.1c-14.4 0-26-11.7-26-26 0-14.4 11.7-26 26-26h229c14.4 0 26 11.7 26 26 0 14.4-11.7 26-26 26h-229zM1016.6 333.5L834.2 515.9c-2.1 2.1-4.5 3.5-7.1 4.4-7.5 5.8-18.4 5.3-25.2-1.6L582.8 299.6c-3.4-3.4-6.3-7.3-8.7-11.5-4.3-7.8-6.6-16.5-6.6-25.4v-168.4c-0.1-0.9-0.3-1.9-0.3-2.8 0-5.4 2.2-10.2 5.8-13.7 3.5-3.6 8.3-5.8 13.7-5.8 1 0 1.9 0.1 2.8 0.3h189.1c11.4 0 21.5 9.4 20.6 20.7-0.4 4.7-2.4 8.9-5.6 12.1-0.7 1.1-1.5 2.1-2.5 3.1L634.7 264.6c-9 9-9 23.6 0 32.6L799 461.4c9.8 9.8 25.6 9.8 35.4 0 9.8-9.8 9.8-25.6 0-35.4L689.7 281.3c-0.9-0.9-1.5-2.2-1.5-3.5-0.8-24.1 22.1-30.3 33.6-18.8l138.5 138.5c10.5 10.5 27.5 10.5 38 0l62.5-62.5c9-9 9-23.6 0-32.6l-146.2-146c-0.9-0.9-1.5-2.2-1.5-3.5-0.8-24.1 22.1-30.3 33.6-18.8L1016.6 304c4 4 5.8 9.4 5.5 14.7 0.3 5.4-1.5 10.8-5.5 14.8z m-290.1-215c2.9-2.9 0.8-7.9-3.3-7.9H610.6c-2.6 0-4.6 2.1-4.6 4.6V227.9c0 4.1 5 6.2 7.9 3.3l112.6-112.7zM819.3 71.4c-14.4 0-26-11.7-26-26v-20.8c0-11.5-9.3-20.8-20.8-20.8H452.1l-0.1-0.2c-0.7 0.1-1.4 0.2-2.2 0.2H75.1c-11.5 0-20.8 9.3-20.8 20.8V742.7c0 11.5 9.3 20.8 20.8 20.8h697.4c11.5 0 20.8-9.3 20.8-20.8v-177c0-14.4 11.7-26 26-26 14.4 0 26 11.7 26 26V763.6c0 28.7-23.3 52-52 52h-739c-28.7 0-52-23.3-52-52v-759.8c0-28.7 23.3-52 52-52h739.1c28.7 0 52 23.3 52 52v41.6c0 14.3-11.7 26-26.1 26z"  horiz-adv-x="1024" />

    
    <glyph glyph-name="xiezuowendang" unicode="&#59474;" d="M660.3 643.8c0 14.8-12 26.8-26.8 26.8H226.4c-14.8 0-26.8-12-26.8-26.8s12-26.8 26.8-26.8h407.1c14.8 0 26.8 12 26.8 26.8zM660.3 456.3c0 14.8-12 26.8-26.8 26.8H226.4c-14.8 0-26.8-12-26.8-26.8s12-26.8 26.8-26.8h407.1c14.8 0 26.8 12 26.8 26.8zM226.4 300.9c-14.8 0-26.8-12-26.8-26.8s12-26.8 26.8-26.8h235.7c14.8 0 26.8 12 26.8 26.8s-12 26.8-26.8 26.8H226.4zM526.4 17h-450c-11.8 0-21.4 9.6-21.4 21.4V777.7c0 11.8 9.6 21.4 21.4 21.4h717.8c11.8 0 21.4-9.6 21.4-21.4v-332.1c0-14.8 12-26.8 26.8-26.8s26.8 12 26.8 26.8V799.1c0 29.6-24 53.6-53.6 53.6H55c-29.6 0-53.6-24-53.6-53.6V17c0-29.6 24-53.6 53.6-53.6H526.5c14.8 0 26.8 12 26.8 26.8-0.1 14.8-12.1 26.8-26.9 26.8zM665.4 43c-41.9 30.2-69.4 79.3-69.4 134.8 0 13 1.6 25.6 4.5 37.8 2.1-0.2 4.1-0.3 6.2-0.3 41.4 0 75 33.6 75 75s-33.6 75-75 75-75-33.6-75-75c0-19.5 7.5-37.3 19.7-50.6-5.8-19.6-8.9-40.4-8.9-61.9 0-76.8 39.7-144.4 99.6-183.7 0.5 6.2 1.7 12.5 3.8 18.7 4.1 11.9 10.9 22.1 19.5 30.2zM928.2 174.6c-0.1 0-0.1 0.1-0.2 0.1-1.4-75.3-53.1-138.4-122.8-157.2-10.9 27.9-38.1 47.7-69.8 47.7-41.4 0-75-33.6-75-75s33.6-75 75-75c31.6 0 58.6 19.5 69.6 47.1 100.3 19.9 176.2 108.3 176.7 214.2-16.5-6.9-35.3-8.1-53.5-1.9zM949.6 333.1c-9.7 0-18.9-1.9-27.4-5.2-40.1 42.7-97 69.5-160.1 69.5-36.4 0-70.6-9-100.8-24.7 15.9-10.4 27.1-26.2 31.7-44.1 21.1 9.7 44.5 15.3 69.1 15.3 47.4 0 90.2-20 120.5-52-5.1-10.1-8-21.6-8-33.7 0-41.4 33.6-75 75-75s75 33.6 75 75-33.6 74.9-75 74.9z"  horiz-adv-x="1024" />

    
    <glyph glyph-name="xiezuodeziyuanku" unicode="&#59476;" d="M153.856 741.888a51.2 51.2 0 0 1-51.2-51.2V76.8a51.2 51.2 0 0 1 51.2-51.2H870.4a51.2 51.2 0 0 1 51.2 51.2V588.8a51.2 51.2 0 0 1-51.2 51.2l-336.6912-1.3312A102.4 102.4 0 0 0 460.8 668.2624L403.1488 725.8112a51.2 51.2 0 0 1-35.84 15.0016L153.6 741.8368z m0 51.2l213.4016-1.0752a102.4 102.4 0 0 0 71.68-30.0032L496.64 704.4608a51.2 51.2 0 0 1 36.4544-15.0016l336.64 1.3312A102.4 102.4 0 0 0 972.8 588.8v-512a102.4 102.4 0 0 0-102.4-102.4H153.6a102.4 102.4 0 0 0-102.4 102.4V690.688a102.4 102.4 0 0 0 102.4 102.4zM441.856 302.6432a63.3856 63.3856 0 0 1 13.2096 5.7344c7.5776 4.6592 13.4144 14.1824-0.7168 25.856-46.592 65.3824-29.5424 108.7488-22.528 125.1328a56.6784 56.6784 0 0 1-20.48 3.584h-2.4064c-44.6464 0-56.32-39.4752-57.4464-61.44-0.4608-52.3264 32.512-73.1136 32.512-73.1136a19.1488 19.1488 0 0 0 2.048-10.7008 14.9504 14.9504 0 0 0-3.328-8.8576c-18.3296-14.336-79.5136-29.696-83.7632-60.416a89.9072 89.9072 0 0 1-0.4096-26.9312c10.24-7.4752 42.0864-13.824 42.0864-13.824a200.3968 200.3968 0 0 1 5.12 20.8384c3.9936 19.0464 30.7712 50.1248 96.1024 74.1376z m283.4432-54.2208c-4.352 31.0272-67.2256 46.08-85.9648 60.4672a14.7456 14.7456 0 0 0-3.3792 8.8576 19.1488 19.1488 0 0 0 2.048 10.7008s33.6384 20.48 33.0752 72.9088c-0.9216 22.1184-15.36 61.44-58.88 61.44h-2.5088a61.0816 61.0816 0 0 1-24.1152-4.608c9.3696-30.464 20.48-86.3232-26.7264-123.8016-18.5856-26.88 43.264-42.7008 33.6384-38.5024 55.9616-24.4736 70.9632-43.1616 75.1104-62.5664 3.4304-16.1792 5.12-26.0608 5.12-26.0608s41.9328 6.1952 52.7872 14.1312a87.9104 87.9104 0 0 1-0.2048 27.0336zM542.72 308.0192a18.5344 18.5344 0 0 0-4.1984 11.008 23.808 23.808 0 0 0 2.56 13.2608s41.3696 21.7088 40.5504 90.5728c-1.1264 27.648-18.7392 76.4416-72.192 76.4416H506.88c-56.32 0-71.0656-48.9984-72.192-76.4928-0.7168-64.768 40.5504-90.5728 40.5504-90.5728a24.2176 24.2176 0 0 0 5.12-15.36c0-2.2528-3.9936-6.8608-6.6048-8.8576-23.04-17.92-106.0352-35.84-111.4112-74.5472-4.1984-16.384-28.8256-42.2912 53.0944-52.7872a775.0144 775.0144 0 0 1 94.6176-4.608c190.0032 0 150.6816 35.84 145.3568 56.7296-5.12 38.5536-88.9856 57.2416-112.0256 75.1616z"  horiz-adv-x="1024" />

    
    <glyph glyph-name="guochengguanli" unicode="&#59477;" d="M798.72 819.2H947.2v-145.92h51.2V870.4h-199.68zM947.2 94.72V-51.2h-148.48v-51.2H998.4v197.12zM66.56 673.28V819.2h148.48V870.4H12.8v-197.12zM215.04-51.2H66.56v145.92H12.8V-102.4h202.24zM481.28 460.8h-153.6c-12.8 0-25.6-10.24-25.6-25.6s10.24-25.6 25.6-25.6h153.6c12.8 0 25.6 10.24 25.6 25.6s-12.8 25.6-25.6 25.6zM481.28 353.28h-153.6c-12.8 0-25.6-10.24-25.6-25.6 0-12.8 10.24-25.6 25.6-25.6h153.6c12.8 0 25.6 10.24 25.6 25.6-2.56 12.8-12.8 25.6-25.6 25.6zM768 235.52v5.12l30.72 35.84-5.12 10.24c0 2.56-2.56 2.56-2.56 5.12-2.56 5.12-5.12 12.8-7.68 15.36-2.56 7.68-7.68 15.36-15.36 20.48l-7.68 7.68-46.08-2.56c-2.56 0-2.56 2.56-5.12 2.56l-15.36 43.52-12.8 2.56c-10.24 2.56-20.48 2.56-33.28 2.56-10.24 0-20.48 0-33.28-2.56l-12.8-2.56-12.8-43.52c0-2.56-2.56-2.56-5.12-2.56l-43.52 7.68-10.24-7.68c-12.8-15.36-20.48-30.72-25.6-46.08l-5.12-10.24 30.72-35.84v-2.56l-30.72-35.84 5.12-10.24c2.56-7.68 5.12-15.36 10.24-25.6 5.12-7.68 10.24-15.36 15.36-20.48l7.68-7.68 46.08 7.68s2.56 0 2.56-2.56l15.36-43.52 12.8-2.56c10.24-2.56 20.48-2.56 33.28-2.56s23.04 0 33.28 2.56l12.8 2.56 15.36 43.52 2.56 2.56 46.08-7.68 7.68 7.68c10.24 10.24 17.92 25.6 25.6 46.08l5.12 12.8-28.16 30.72z m-46.08-51.2h-7.68c-20.48 0-38.4-12.8-46.08-30.72l-7.68-20.48H640l-7.68 20.48c-7.68 20.48-25.6 33.28-46.08 33.28h-5.12l-23.04-2.56s0 2.56-2.56 2.56c-2.56 2.56-2.56 5.12-2.56 7.68l12.8 15.36c15.36 17.92 15.36 43.52 0 61.44l-12.8 15.36c2.56 5.12 5.12 7.68 5.12 10.24l20.48-2.56h7.68c20.48 0 38.4 12.8 46.08 30.72l7.68 17.92h20.48l5.12-17.92c7.68-20.48 25.6-33.28 46.08-33.28h5.12l20.48 2.56c0-2.56 2.56-2.56 2.56-5.12 2.56-2.56 2.56-5.12 2.56-5.12l-12.8-15.36c-12.8-17.92-12.8-43.52 0-61.44l12.8-15.36c-2.56-2.56-2.56-7.68-5.12-10.24l-15.36 2.56zM650.24 296.96c-33.28 0-58.88-25.6-58.88-58.88 0-33.28 25.6-58.88 58.88-58.88 33.28 0 58.88 28.16 58.88 58.88 0 30.72-25.6 58.88-58.88 58.88z m0-46.08c7.68 0 15.36-5.12 15.36-15.36 0-7.68-5.12-15.36-15.36-15.36-7.68 0-15.36 5.12-15.36 15.36 0 10.24 5.12 15.36 15.36 15.36zM491.52 184.32l-5.12 17.92 7.68 7.68h-230.4V552.96h279.04v-202.24c10.24-2.56 28.16-5.12 38.4-5.12l12.8 33.28v199.68c0 12.8-10.24 25.6-25.6 25.6h-204.8v28.16h279.04v-235.52h5.12c10.24 0 23.04 0 35.84-2.56l7.68-2.56V652.8c0 12.8-10.24 25.6-25.6 25.6H337.92c-12.8 0-25.6-10.24-25.6-25.6v-51.2H238.08c-12.8 0-25.6-10.24-25.6-25.6v-389.12c0-12.8 10.24-25.6 25.6-25.6h263.68c-5.12 10.24-7.68 17.92-10.24 23.04z"  horiz-adv-x="1024" />

    
    <glyph glyph-name="xiezuocopy" unicode="&#59478;" d="M738.858667-12.757333a400.981333 400.981333 0 0 0-203.52-55.210667 401.066667 401.066667 0 0 0-218.368 64.384 153.301333 153.301333 0 0 0-35.114667-48.768A460.928 460.928 0 0 1 535.296-128a461.013333 461.013333 0 0 1 242.304 68.48 152.96 152.96 0 0 0-38.741333 46.762667z m-63.573334 725.888a403.2 403.2 0 0 0 242.346667-505.6c19.925333-5.845333 38.186667-15.488 53.76-28.245334a463.189333 463.189333 0 0 1-282.453333 592.64 153.898667 153.898667 0 0 0-13.653334-58.794666zM151.68 211.626667A403.157333 403.157333 0 0 0 395.434667 713.173333a152.064 152.064 0 0 0-13.653334 58.666667C144 688.213333 16.725333 429.696 95.488 190.293333c16.853333 10.624 35.84 17.92 56.192 21.333334zM411.306667 771.84a124.032 124.032 0 1 1 248.021333 0 124.032 124.032 0 0 1-248.021333 0zM52.992 66.218667a124.032 124.032 0 1 1 248.064 0 124.032 124.032 0 0 1-248.064 0zM750.378667 55.210667a124.032 124.032 0 1 1 248.064 0 124.032 124.032 0 0 1-248.064 0z"  horiz-adv-x="1024" />

    
    <glyph glyph-name="xiezuoyanfa" unicode="&#59479;" d="M109.533149 300.561451a30.973561 30.973561 0 0 1-45.052452 0 31.536716 31.536716 0 0 1 0-45.615608l235.399063-238.777996a30.973561 30.973561 0 0 1 22.526226-9.010491 32.099872 32.099872 0 0 1 22.526226 9.010491 32.099872 32.099872 0 0 1 0 46.178763zM870.356434 755.028062a32.099872 32.099872 0 0 1 23.089382-9.010491 32.663028 32.663028 0 0 1 22.526226 9.010491 33.226183 33.226183 0 0 1 0 46.178763L832.06185 886.243328a31.536716 31.536716 0 0 1-45.615608 0A33.226183 33.226183 0 0 1 785.319931 839.501409l85.036503-84.473347zM939.061424-61.547633h-133.467889l18.584136 16.894669a281.577826 281.577826 0 0 1-84.473348 454.466611A101.368017 101.368017 0 0 1 729.004366 445.292453l132.341578 134.031045a79.968103 79.968103 0 0 1 0 112.631131L729.004366 829.364608a77.71548 77.71548 0 0 1-112.63113 0L190.627563 398.550534a79.968103 79.968103 0 0 1 0-112.63113l134.594201-136.846823a79.404947 79.404947 0 0 1 56.315565-23.652538 77.152324 77.152324 0 0 1 56.315565 23.652538l154.867804 157.120426a105.873262 105.873262 0 0 1 45.052452-10.699957 103.62064 103.62064 0 0 1 87.852282 49.557697A215.688615 215.688615 0 0 0 639.462617-61.547633H422.084536a32.099872 32.099872 0 0 1-31.536717-32.663028 32.663028 32.663028 0 0 1 31.536717-32.663028h516.413732a32.099872 32.099872 0 0 1 32.099872 32.663028 31.536716 31.536716 0 0 1-31.536716 32.663028z m-302.414585 422.366738a39.984051 39.984051 0 0 0 0 79.404947 39.984051 39.984051 0 0 0 0-79.404947z m48.431386 132.341579a96.862772 96.862772 0 0 1-48.431386 12.389424 104.746951 104.746951 0 0 1-103.62064-104.746951 109.252196 109.252196 0 0 1 12.389425-49.557698L391.110975 195.251344a14.078891 14.078891 0 0 0-20.273603 0L235.680015 332.661323a15.205203 15.205203 0 0 0 0 20.836759L661.425688 783.185844a15.205203 15.205203 0 0 0 20.836759 0l134.594201-136.846823a15.205203 15.205203 0 0 0 0-20.836759z"  horiz-adv-x="1024" />

    
    <glyph glyph-name="xiezuo1" unicode="&#59480;" d="M995.401143 532.260571l-230.180572 247.076572a93.037714 93.037714 0 0 1-138.093714 0L558.006857 705.097143 442.953143 828.781714a93.037714 93.037714 0 0 1-138.093714 0L28.525714 532.187429A110.299429 110.299429 0 0 1 28.598857 384l414.354286-444.708571c38.107429-40.96 99.986286-40.96 138.093714 0l345.234286 370.614857L995.474286 384a110.299429 110.299429 0 0 1 0 148.260571zM811.154286 281.6l-22.966857-24.649143-46.08 49.371429a31.012571 31.012571 0 0 1-46.08 0 36.790857 36.790857 0 0 1 0-49.371429l46.08-49.444571-46.08-49.371429-92.013715 98.742857a31.012571 31.012571 0 0 1-46.08 0 36.790857 36.790857 0 0 1 0-49.371428l92.16-98.816-46.08-49.444572L465.92 207.579429a31.012571 31.012571 0 0 1-46.08 0 36.790857 36.790857 0 0 1 0-49.371429l138.093714-148.260571-22.966857-24.722286a31.012571 31.012571 0 0 0-46.08 0l-414.281143 444.708571a36.790857 36.790857 0 0 0 0 49.444572l276.187429 296.448a31.012571 31.012571 0 0 0 46.08 0L512 652.288l-46.08-49.371429a110.299429 110.299429 0 0 1 0-148.260571L512 405.211429c38.107429-40.96 99.986286-40.96 138.093714 0l46.08 49.444571 115.053715-123.538286a36.790857 36.790857 0 0 0 0-49.444571z m138.093714 148.260571l-69.046857-74.093714-69.046857 74.093714L719.140571 528.822857a31.012571 31.012571 0 0 1-46.006857 0l-23.04-24.649143-46.08-49.444571a31.012571 31.012571 0 0 0-46.006857 0L512 504.100571a36.790857 36.790857 0 0 0 0 49.371429l46.08 49.444571 115.053714 123.538286a31.012571 31.012571 0 0 0 46.08 0l46.006857-49.444571 184.100572-197.632a36.790857 36.790857 0 0 0 0-49.444572z"  horiz-adv-x="1024" />

    
    <glyph glyph-name="xiezuo2" unicode="&#59481;" d="M736.456 379.9c-52.99 0-95.981-42.99-95.981-95.98 0-7.599 0.9-14.898 2.5-21.996l-222.657-98.58c-17.397 17.596-41.592 28.594-68.287 28.594-52.99 0-95.981-42.992-95.981-95.982s42.992-95.981 95.981-95.981c24.795 0 47.391 9.398 64.488 24.895l161.268-75.185c8.498-44.292 47.49-77.685 94.282-77.685 52.99 0 95.981 42.992 95.981 95.981s-42.992 95.982-95.981 95.982c-35.793 0-66.987-19.597-83.484-48.691l-141.572 65.987c0.7 4.8 1.1 9.698 1.1 14.597 0 3.2-0.2 6.399-0.5 9.498l230.755 102.08c16.096-12.297 36.292-19.696 58.188-19.696 52.99 0 95.981 42.992 95.981 95.982s-43.091 96.18-96.08 96.18zM352.031 63.964c-17.596 0-31.994 14.397-31.994 31.993s14.398 31.994 31.994 31.994 31.994-14.397 31.994-31.994-14.397-31.993-31.994-31.993z m319.938-63.988c17.596 0 31.994-14.397 31.994-31.994s-14.398-31.993-31.994-31.993-31.994 14.397-31.994 31.993 14.397 31.994 31.994 31.994z m64.487 251.95c-17.596 0-31.994 14.398-31.994 31.995s14.398 31.993 31.994 31.993 31.994-14.397 31.994-31.993-14.397-31.994-31.994-31.994zM419.418 427.892c30.494-12.897 57.889-31.393 81.384-54.889a252.48 252.48 0 0 0 35.693-44.491l0.1 0.1c5.8-7.999 15.297-13.298 25.895-13.298 17.697 0 31.994 14.298 31.994 31.994 0 7.099-2.3 13.697-6.199 18.996-34.393 52.89-84.183 95.082-142.872 120.177 59.488 40.292 98.48 108.379 98.48 185.564C543.894 795.72 443.614 896 319.939 896S95.98 795.72 95.98 672.044c0-77.185 39.093-145.272 98.481-185.464C80.084 437.69 0 324.212 0 192.037c0-22.095 2.2-43.691 6.499-64.587h0.1c2.4-15.297 15.597-27.095 31.594-27.095 17.696 0 31.993 14.298 31.993 31.994 0 2.8-0.4 5.5-1 8.099-3.399 16.796-5.198 34.093-5.198 51.59 0 34.593 6.798 68.086 20.096 99.58 12.897 30.494 31.393 57.889 54.889 81.384s50.89 41.992 81.384 54.89c31.494 13.297 64.987 20.096 99.58 20.096 34.494 0 67.987-6.8 99.481-20.097z m-259.35 244.053c0 42.691 16.597 82.884 46.892 113.078 30.194 30.294 70.386 46.89 113.077 46.89s82.884-16.596 113.078-46.89c30.294-30.194 46.891-70.387 46.891-113.078s-16.597-82.884-46.89-113.078c-30.195-30.194-70.387-46.891-113.079-46.891s-82.883 16.597-113.077 46.89c-30.195 30.195-46.891 70.387-46.891 113.079zM1023.9 192.037c0 132.175-80.184 245.553-194.462 294.343 59.388 40.292 98.48 108.379 98.48 185.564C927.919 795.62 827.639 895.9 703.964 895.9c-40.093 0-77.685-10.498-110.279-28.994a31.911 31.911 0 0 1-17.696-28.595c0-17.696 14.297-31.993 31.993-31.993 5.9 0 11.398 1.6 16.197 4.399 23.995 13.797 51.29 21.196 79.785 21.196 42.691 0 82.883-16.597 113.077-46.891 30.195-30.194 46.891-70.387 46.891-113.078 0-42.692-16.596-82.884-46.89-113.078-30.195-30.194-70.387-46.891-113.078-46.891-9.399 0-18.597 0.8-27.595 2.4-1.8 0.3-3.8 0.5-5.699 0.5-17.697 0-31.994-14.298-31.994-31.994 0-16.397 12.298-29.794 28.095-31.794 11.997-2 24.195-3.1 36.693-3.1h0.5c34.593 0 68.086-6.798 99.58-20.096 30.494-12.897 57.889-31.393 81.384-54.889s41.992-50.89 54.89-81.384c13.297-31.494 20.096-64.987 20.096-99.58 0-17.897-1.8-35.594-5.4-52.79h0.1c-0.5-2.2-0.8-4.5-0.8-6.899 0-17.696 14.298-31.994 31.994-31.994 16.197 0 29.495 11.998 31.694 27.495a323.525 323.525 0 0 1 6.399 64.187z"  horiz-adv-x="1024" />

    
    <glyph glyph-name="quanguochengjiankong" unicode="&#59482;" d="M633.904762 871.619048C304.518095 871.619048 36.571429 603.672381 36.571429 274.285714c0-134.095238 43.398095-260.681143 125.415619-366.250666a42.666667 42.666667 0 0 1 67.388952 52.321523A507.172571 507.172571 0 0 0 121.904762 274.285714c0 282.331429 229.668571 512 512 512s512-229.668571 512-512c0-114.834286-37.156571-223.427048-107.52-313.929143a42.520381 42.520381 0 0 1 7.509333-59.830857 42.422857 42.422857 0 0 1 59.830857 7.509334 590.994286 590.994286 0 0 1 125.513143 366.250666C1231.238095 603.672381 963.291429 871.619048 633.904762 871.619048z m0-298.666667a42.666667 42.666667 0 0 1 42.666667 42.666667V700.952381a42.666667 42.666667 0 1 1-85.333334 0v-85.333333c0-23.552 19.114667-42.666667 42.666667-42.666667z m-360.155429-92.647619a42.666667 42.666667 0 1 1-47.689143-70.704762l70.704762-47.737905a42.569143 42.569143 0 0 1 59.245715 11.556572 42.666667 42.666667 0 0 1-11.50781 59.196952l-70.704762 47.689143z m758.637715-3.267048a42.666667 42.666667 0 0 1-60.220953 4.242286l-64.414476-55.978667a42.666667 42.666667 0 0 1 55.978667-64.463238l64.414476 55.978667a42.666667 42.666667 0 0 1 4.242286 60.220952z m-271.311238-416.085333c0 3.413333 0.390095 6.826667-0.48762 10.337524l-85.333333 341.333333c-0.438857 1.950476-1.657905 3.31581-2.438095 5.12-1.121524 2.82819-2.145524 5.656381-3.900952 8.240762-1.462857 2.194286-3.364571 3.900952-5.168762 5.802667-2.048 2.048-3.900952 3.998476-6.290286 5.607619-2.340571 1.560381-4.924952 2.535619-7.558095 3.608381-1.950476 0.78019-3.510857 2.096762-5.607619 2.633143-0.682667 0.146286-1.316571-0.048762-1.999238 0.097523-2.730667 0.536381-5.510095 0.390095-8.387048 0.390096-2.82819 0-5.607619 0.146286-8.289524-0.390096-0.731429-0.146286-1.414095 0.048762-2.096762-0.097523-2.145524-0.585143-3.803429-1.950476-5.802666-2.779429-2.486857-1.072762-4.973714-1.950476-7.314286-3.413333-2.438095-1.706667-4.437333-3.803429-6.534095-5.851429-1.80419-1.852952-3.559619-3.510857-4.973715-5.607619-1.755429-2.584381-2.779429-5.36381-3.900952-8.192-0.78019-1.80419-1.999238-3.267048-2.535619-5.168762l-85.333333-341.333333c-0.877714-3.510857-0.487619-6.92419-0.48762-10.337524h-0.731428c0-1.852952 0.487619-3.559619 0.536381-5.461333l0.195047-1.755429A127.853714 127.853714 0 0 1 633.904762-67.047619c68.071619 0 123.416381 53.638095 127.268571 120.783238l0.195048 1.755429c0.048762 1.852952 0.536381 3.559619 0.536381 5.461333h-0.828952zM633.904762 18.285714a42.422857 42.422857 0 0 0-42.081524 39.789715L633.904762 226.401524l42.081524-168.326095A42.374095 42.374095 0 0 0 633.904762 18.285714z"  horiz-adv-x="1267" />

    
    <glyph glyph-name="guochengyuanshuju" unicode="&#59483;" d="M660.870095-74.605714a286.72 286.72 0 0 0-204.166095 84.601904 286.915048 286.915048 0 0 0-84.601905 204.166096c0 77.04381 30.086095 149.601524 84.601905 204.117333a286.915048 286.915048 0 0 0 204.166095 84.601905c77.04381 0 149.601524-30.037333 204.117334-84.601905a286.915048 286.915048 0 0 0 84.650666-204.117333c0-77.092571-30.086095-149.601524-84.650666-204.166096a286.524952 286.524952 0 0 0-204.117334-84.601904z m0 507.904a219.37981 219.37981 0 0 1-219.136-219.136 219.428571 219.428571 0 0 1 219.136-219.136 219.428571 219.428571 0 0 1 219.136 219.136 219.428571 219.428571 0 0 1-219.136 219.136zM492.885333 598.25981c-100.644571 0-195.730286 12.190476-267.751619 34.230857-37.156571 11.410286-66.80381 25.014857-88.307809 40.618666-35.59619 25.697524-43.056762 53.150476-43.056762 71.68 0 18.432 7.460571 45.884952 43.056762 71.631238 21.455238 15.60381 51.2 29.208381 88.259047 40.618667C297.106286 878.933333 392.289524 891.12381 492.934095 891.12381c100.693333 0 195.730286-12.190476 267.702857-34.230858 37.10781-11.410286 66.80381-25.063619 88.259048-40.618666 35.59619-25.746286 43.056762-53.150476 43.056762-71.68 0-18.432-7.460571-45.933714-43.056762-71.68-21.455238-15.506286-51.151238-29.159619-88.259048-40.569905-71.972571-22.040381-167.107048-34.133333-267.702857-34.133333z m0 223.280761c-93.915429 0-181.784381-11.02019-247.369143-31.158857-37.10781-11.410286-57.344-22.820571-67.779047-30.329904-11.702857-8.533333-14.238476-14.336-14.238476-15.311239 0-0.975238 2.535619-6.777905 14.238476-15.262476 10.435048-7.558095 30.72-19.017143 67.779047-30.378666 65.584762-20.089905 153.35619-31.110095 247.369143-31.110096 93.915429 0 181.784381 11.02019 247.369143 31.110096 37.156571 11.410286 57.344 22.820571 67.779048 30.378666 11.702857 8.484571 14.238476 14.287238 14.238476 15.262476 0 0.975238-2.535619 6.826667-14.238476 15.311239-10.435048 7.509333-30.72 19.017143-67.779048 30.329904-65.682286 20.138667-153.453714 31.158857-247.369143 31.158857z m0.390096-458.752c-4.87619 0-9.069714 0-13.55581 0.097524-97.865143 1.072762-189.927619 13.653333-259.072 35.596191-35.84 11.410286-64.560762 24.868571-85.284571 40.228571C101.034667 464.11581 93.769143 490.788571 93.769143 509.17181h69.632c0-0.975238 2.438095-6.485333 13.360762-14.628572 9.947429-7.314286 29.305905-18.529524 64.804571-29.744762 62.756571-19.846095 147.651048-31.353905 238.83581-32.280381l12.775619-0.097524v-69.632h0.097524z m299.300571 51.541334l-21.455238 53.833143c41.74019 16.676571 56.953905 33.304381 56.953905 41.008762h58.026666c0-14.482286-5.12-36.425143-29.744762-58.221715-15.262476-13.507048-36.717714-25.892571-63.780571-36.62019z m-382.585905-284.233143c-82.553905 5.705143-158.183619 20.23619-212.74819 40.96-29.354667 11.068952-52.857905 24.234667-69.729524 38.521905-27.794286 23.698286-33.743238 48.176762-33.743238 64.609523h69.632c0-2.925714 10.191238-19.504762 58.514286-37.888 48.37181-18.285714 116.931048-31.451429 192.950857-36.668952l-4.876191-69.534476z m82.895238-222.890667c-100.644571 0-195.730286 12.190476-267.751619 34.230857-37.156571 11.410286-66.80381 25.063619-88.307809 40.618667-35.59619 25.746286-43.056762 53.296762-43.056762 71.68h69.632c0-0.975238 2.535619-6.875429 14.238476-15.311238 10.435048-7.509333 30.72-19.017143 67.779048-30.378667 65.584762-20.089905 153.35619-31.110095 247.369143-31.110095 76.312381 0 148.72381 7.265524 209.383619 21.065143l15.457523-67.876572c-65.584762-15.11619-143.36-22.918095-224.743619-22.918095zM93.769143 744.643048h69.632v-691.004953H93.769143V744.643048z m734.305524 0h58.026666V379.12381h-58.026666V744.643048z m-26.185143-423.984762v-1.950476c0-1.024 0-1.950476-0.097524-2.974477a35.693714 35.693714 0 0 0-0.633905-4.778666l-0.682666-2.730667a38.180571 38.180571 0 0 0-7.314286-13.897143l-0.585143-0.682667a39.789714 39.789714 0 0 0-3.900952-3.900952l-0.682667-0.585143a38.424381 38.424381 0 0 0-21.455238-8.679619h-0.926476l-30.866286-89.526857 0.975238-1.121524a42.374095 42.374095 0 0 0 5.753905-9.459809l0.682666-1.706667a30.524952 30.524952 0 0 0 1.560381-5.461333 40.131048 40.131048 0 0 0 0.780191-7.753143 38.326857 38.326857 0 1 0-74.898286 11.410286l0.585143 1.80419 0.390095 0.975238-45.494857 46.226286-1.511619-0.633905a37.64419 37.64419 0 0 0-15.555048-2.243048l-29.842285-86.211047 1.219047-1.072762 0.633905-0.633905 1.26781-1.316571a26.331429 26.331429 0 0 0 3.413333-4.388572 36.766476 36.766476 0 0 0 3.559619-6.436571l0.682667-1.755429a30.524952 30.524952 0 0 0 1.560381-5.461333 40.131048 40.131048 0 0 0 0.78019-7.704381 38.326857 38.326857 0 1 0-74.898286 11.410286l0.585143 1.755428a41.788952 41.788952 0 0 0 4.242286 8.240762 36.327619 36.327619 0 0 0 2.194286 2.925715l1.219047 1.414095a26.136381 26.136381 0 0 0 1.219048 1.316571l0.682667 0.633905a40.813714 40.813714 0 0 0 2.048 1.80419l0.731428 0.585143a26.819048 26.819048 0 0 0 4.096 2.828191l0.731429 0.487619a34.084571 34.084571 0 0 0 4.973714 2.340571l1.316571 0.487619 0.48762 0.146286a38.326857 38.326857 0 0 0 10.044952 1.852952l31.110095 89.33181-0.536381 0.585143-0.633905 0.682666a38.424381 38.424381 0 0 0-8.777142 24.380953l0.097523 1.950476a36.327619 36.327619 0 0 0 2.925715 12.921905c1.072762 2.486857 2.389333 4.87619 3.900952 7.021714l0.292571 0.487619 0.828953 1.072762 0.243809 0.292571a46.665143 46.665143 0 0 0 2.243048 2.584381l0.097524 0.097524a36.766476 36.766476 0 0 0 5.510095 4.778667l1.26781 0.877714a34.864762 34.864762 0 0 0 2.145523 1.316572l1.024 0.536381a10.971429 10.971429 0 0 0 0.585143 0.292571l1.121524 0.536381c0.731429 0.390095 1.462857 0.682667 2.194286 0.975238l1.316571 0.487619c0.682667 0.195048 1.365333 0.487619 2.048 0.633905a41.398857 41.398857 0 0 0 10.435048 1.462857 38.034286 38.034286 0 0 0 12.288-1.999238l1.755428-0.682667a40.277333 40.277333 0 0 0 7.363048-3.900952l0.78019-0.487619a38.424381 38.424381 0 0 0 16.091429-29.305905v-1.950476c0-0.975238 0-1.950476-0.097524-2.925714a35.693714 35.693714 0 0 0-0.633905-4.778667l-0.731428-2.779429a42.76419 42.76419 0 0 0-1.657905-4.729904l45.007238-45.641143 1.950476 0.828952 1.316572 0.487619 0.487619 0.195048a38.765714 38.765714 0 0 0 14.628571 1.80419l29.696 86.162286a41.74019 41.74019 0 0 0-3.803428 3.85219l-0.633905 0.682667a38.424381 38.424381 0 0 0-8.777143 24.332191l0.097524 1.950476a36.327619 36.327619 0 0 0 2.925714 12.921904c1.072762 2.486857 2.389333 4.87619 3.900953 7.070477 0.097524 0.097524 0.24381 0.24381 0.292571 0.390095l0.877714 1.121524 0.195048 0.292571a36.766476 36.766476 0 0 0 11.215238 9.654857l1.072762 0.536381a10.971429 10.971429 0 0 0 0.585143 0.341334l1.121524 0.487619c0.731429 0.390095 1.462857 0.682667 2.243047 0.975238l1.26781 0.487619c0.682667 0.195048 1.365333 0.487619 2.048 0.633905a41.398857 41.398857 0 0 0 10.435047 1.462857l2.925715-0.097524a35.693714 35.693714 0 0 0 9.557333-1.950476l1.26781-0.487619 2.243047-0.975238 1.121524-0.536381 0.585143-0.341334a18.041905 18.041905 0 0 0 1.024-0.536381l0.78019-0.487619 1.365334-0.828952 1.267809-0.877714c1.950476-1.414095 3.85219-3.023238 5.510095-4.778667l0.048762-0.048762a46.665143 46.665143 0 0 0 2.243048-2.633143l0.243809-0.292571 0.877715-1.121524 0.292571-0.390095a38.278095 38.278095 0 0 0 3.900953-7.070477l0.682666-1.706666a34.279619 34.279619 0 0 0 2.243048-11.215238z"  horiz-adv-x="1024" />

    
    <glyph glyph-name="dangwurenwuguanli" unicode="&#59484;" d="M875.89 893.793H147.843C67.41 893.793 2.207 828.589 2.207 748.157V20.11c0-80.432 65.204-145.635 145.636-145.635H875.89c80.432 0 145.635 65.203 145.635 145.635V748.157c0 80.432-65.203 145.636-145.635 145.636z m72.886-873.882a72.63 72.63 0 0 0-72.787-72.688H148.01c-19.47 0-37.854 7.48-51.623 21.25S74.957 0.44 74.957 19.91V748.09a73.086 73.086 0 0 0 73.054 72.954H875.99a72.861 72.861 0 0 0 72.787-72.954V19.91zM830.576 566.213h-291.27a36.375 36.375 0 0 1 0-72.75h291.272a36.375 36.375 0 0 1 0 72.75z m0-291.409h-291.27a36.375 36.375 0 0 1 0-72.75h291.272a36.375 36.375 0 0 1 0 72.75z m-509.72 90.994c-70.379 0-127.416-57.053-127.416-127.414s57.053-127.417 127.416-127.417S448.27 168.02 448.27 238.383s-57.037 127.414-127.414 127.414z m38.664-166.095a54.665 54.665 0 1 0 16.029 38.664 54.324 54.324 0 0 0-16.03-38.669z m44.842 428.47L284.443 508.26l-47.093 47.098a36.375 36.375 0 1 1-51.443-51.442l72.815-72.82a36.375 36.375 0 0 1 51.443 0l145.636 145.636a36.375 36.375 0 0 1-51.44 51.442z"  horiz-adv-x="1024" />

    
    <glyph glyph-name="chuangjian" unicode="&#59485;" d="M556.8-12.8H243.2c-70.4 0-128 57.6-128 128V659.2c0 70.4 57.6 128 128 128h422.4c70.4 0 128-57.6 128-128v-236.8h108.8V659.2c0 128-108.8 236.8-243.2 236.8H243.2C108.8 896 0 787.2 0 659.2v-544c0-128 108.8-236.8 243.2-236.8h313.6v108.8zM857.6 147.2V307.2h-115.2v-160H576v-108.8h166.4V-128h115.2v166.4H1024v108.8z"  horiz-adv-x="1024" />

    
    <glyph glyph-name="xiezuoduomokuai-sheji" unicode="&#59486;" d="M618.666667 59.733333V0c0-4.266667 4.266667-12.8 8.533333-17.066667 4.266667-4.266667 12.8-8.533333 17.066667-8.533333h128c4.266667 0 12.8 4.266667 17.066666 8.533333 4.266667 4.266667 8.533333 8.533333 8.533334 17.066667v55.466667h-179.2zM132.266667 661.333333c-8.533333 0-12.8-4.266667-17.066667-8.533333-4.266667 0-8.533333-8.533333-8.533333-12.8v-128c0-4.266667 4.266667-12.8 8.533333-17.066667 4.266667-4.266667 8.533333-8.533333 17.066667-8.533333h55.466666V661.333333H132.266667zM917.333333 256v-128c0-4.266667-4.266667-12.8-8.533333-17.066667-4.266667-4.266667-8.533333-8.533333-17.066667-8.533333H234.666667V768c0 8.533333 4.266667 12.8 8.533333 17.066667 4.266667 4.266667 8.533333 4.266667 12.8 4.266666h128c4.266667 0 12.8-4.266667 17.066667-8.533333 4.266667 0 8.533333-8.533333 8.533333-12.8v-486.4H896c8.533333 0 12.8-4.266667 17.066667-8.533333 4.266667-4.266667 4.266667-8.533333 4.266666-17.066667zM793.6 661.333333v-332.8h-174.933333V486.4h-162.133334V661.333333z"  horiz-adv-x="1024" />

    
    <glyph glyph-name="xiezuoduomokuai-jindu" unicode="&#59487;" d="M789.333333 25.6H768c-4.266667 149.333333-81.066667 243.2-166.4 320-25.6 25.6-17.066667 55.466667 0 68.266667 89.6 81.066667 166.4 170.666667 166.4 324.266666h21.333333c21.333333 0 38.4 17.066667 38.4 34.133334 0 21.333333-17.066667 38.4-38.4 38.4h-554.666666c-25.6 0-42.666667-17.066667-42.666667-34.133334s17.066667-34.133333 38.4-34.133333h21.333333c4.266667-153.6 76.8-243.2 170.666667-324.266667 21.333333-17.066667 21.333333-46.933333 0-68.266666-89.6-76.8-166.4-170.666667-166.4-320h-21.333333c-21.333333 0-38.4-17.066667-38.4-34.133334 0-21.333333 17.066667-38.4 38.4-38.4h558.933333c21.333333 0 38.4 17.066667 38.4 34.133334s-17.066667 34.133333-42.666667 34.133333zM315.733333 610.133333c-17.066667 38.4-25.6 81.066667-25.6 128h439.466667c0-46.933333-12.8-89.6-25.6-128-64-17.066667-324.266667-17.066667-388.266667 0z m375.466667-584.533333c-59.733333 4.266667-68.266667 157.866667-179.2 157.866667s-123.733333-153.6-183.466667-153.6h-38.4c4.266667 123.733333 64 204.8 140.8 277.333333 21.333333 17.066667 51.2 59.733333 81.066667 59.733333s64-42.666667 81.066667-59.733333c76.8-68.266667 136.533333-149.333333 140.8-277.333333h-42.666667z m0 0"  horiz-adv-x="1024" />

    
    <glyph glyph-name="chakanbanliguocheng" unicode="&#59488;" d="M508.938 79.51c-43.143 0-84.43 10.018-122.764 29.807l-8.754 4.547-5.815-7.946a170.891 170.891 0 0 0-30.018-31.724l-12.72-10.431 14.324-8.065c50.273-28.463 107.575-43.512 165.722-43.512 2.446 0 4.892 0.069 7.334 0.114v67.413c-2.431-0.069-4.859-0.202-7.31-0.202z m189.056 534.441l-13.209 8.966-4.306-15.255c-3.871-13.79-9.548-27.057-16.818-39.458l-5.125-8.735 8.228-6.007c28.256-20.656 51.654-46.136 69.366-75.005h76.75c-24.853 53.974-64.257 101.052-114.886 135.494zM231.57 376.06l13.686-0.335 1.618 9.672c11.714 69.846 52.44 133.012 111.735 173.279l8.42 5.725-4.81 8.914a167.418 167.418 0 0 0-15.448 40.162l-3.773 15.394-13.51-8.528C245.449 567.307 190.12 481.076 177.7 383.799l-2.056-16.213 16.064 3.803c13.105 3.084 26.58 4.67 39.863 4.67z m-19.537-325.225C130.424 52.755 63.82 119.989 63.82 200.72c0 82.574 68.089 149.755 151.77 149.776 83.713 0 151.822-67.211 151.822-149.837 0-82.614-68.114-149.825-151.823-149.825h-3.556z m3.561 240.135c-50.254 0-91.142-40.48-91.142-90.235 0-49.766 40.883-90.245 91.142-90.245 50.264 0 91.157 40.479 91.157 90.245 0 49.756-40.893 90.235-91.157 90.235z m300.051 212.188c-81.687 1.909-148.233 69.14-148.233 149.87 0 82.59 68.094 149.783 151.77 149.783 83.714 0 151.804-67.202 151.804-149.802 0-82.629-68.1-149.85-151.804-149.85h-3.537z m3.537 240.11c-50.25 0-91.124-40.473-91.124-90.224 0-49.766 40.874-90.26 91.124-90.26 50.263 0 91.156 40.489 91.156 90.26 0.005 49.75-40.888 90.225-91.156 90.225z m267.495-769.517V137.786h129.625V405.94H587.645v-397.77h146.907v-42.925l-42.02-0.03-2.679-0.038-0.346 0.097-144.778-0.03V448.862h414.489v-330.544c0-1.118-0.097-2.534-0.183-3.93l-0.02-6.628-0.481-1.57-0.376-0.973-1.33-10.356h-2.427c-22.898-61.903-73.54-109.906-136.56-129.047l-1.108-0.337s-4.441-0.087-5.944-0.087a290.201 290.201 0 0 0-6.81 0.087l-4.962 0.067-1.657-0.028-9.95-3.314-0.733 11.55z m42.916 42.82c34.102 16.53 61.816 44.245 78.337 78.289h-78.337v-78.29zM631.149 215.834V258.75h241.659v-42.916h-241.66z m0 77.76v42.925h241.659v-42.926h-241.66z"  horiz-adv-x="1024" />

    
    <glyph glyph-name="xiezuo3" unicode="&#59489;" d="M824.576 443.2896a0.9728 0.9728 0 0 0-0.512 1.024c10.5984 60.16 2.6112 126.7712-66.6112 202.24a230.6048 230.6048 0 0 1-158.976 77.824 238.3872 238.3872 0 0 1-224.256-135.4752 1.024 1.024 0 0 0-1.024-0.512 171.8272 171.8272 0 0 1-42.8032 3.6352 131.072 131.072 0 0 1-72.96-28.0576c-90.624-69.2736-97.792-122.7776-90.0096-171.3664a0.9216 0.9216 0 0 0-0.512-1.024A145.5104 145.5104 0 0 1 85.504 261.12v-25.4464a146.7904 146.7904 0 0 1 146.7904-146.6368h507.904a191.0272 191.0272 0 0 1 193.536 175.9744 185.2416 185.2416 0 0 1-109.1584 178.2784z m-73.3184-301.2608H245.248a106.2912 106.2912 0 0 0-6.0416 212.3264 119.6032 119.6032 0 0 0 168.5504 164.608 186.2656 186.2656 0 1 0 351.5392-111.5136 132.8128 132.8128 0 0 0-8.0384-265.4208z"  horiz-adv-x="1024" />

    
    <glyph glyph-name="xiezuo4" unicode="&#59490;" d="M402.570983 20.567863c-44.730109 19.170047-89.460218 31.950078-134.190328 38.340093 0 12.780031 0 25.560062 6.390016 31.950078 12.780031 6.390016 19.170047 19.170047 19.170047 25.560063 0 12.780031 0 19.170047 6.390015 31.950078h6.390016c6.390016 0 6.390016 0 12.780031 6.390015v51.120125c0 6.390016 0 12.780031-6.390016 12.780031h-6.390015v25.560063c0 12.780031 6.390016 44.730109-19.170047 70.290171-31.950078 31.950078-108.630265 31.950078-140.580343-6.390015-25.560062-19.170047-19.170047-57.51014-19.170047-70.290172v-25.560062h-6.390016c-6.390016 0-6.390016-6.390016-6.390015-12.780031l6.390015-51.120125c0-6.390016 6.390016-6.390016 12.780032-6.390016h6.390015c0-12.780031 0-19.170047 6.390016-31.950078 0-6.390016 6.390016-19.170047 19.170047-25.560062 0-12.780031 0-25.560062 6.390015-31.950078-44.730109-6.390016-89.460218-19.170047-134.190327-38.340094-12.780031-6.390016-25.560062-25.560062-19.170047-44.730109 0-19.170047 6.390016-31.950078 6.390015-51.120125 0-12.780031 12.780031-31.950078 25.560063-31.950078 115.020281-19.170047 236.430577-19.170047 351.450858 0 12.780031 0 25.560062 19.170047 25.560062 31.950078 0 19.170047 6.390016 31.950078 6.390016 51.120125-6.390016 19.170047-19.170047 38.340094-31.950078 51.120125z m587.881435 0c-44.730109 19.170047-89.460218 31.950078-134.190328 38.340093 0 12.780031 0 25.560062 6.390016 31.950078 12.780031 6.390016 19.170047 19.170047 19.170047 25.560063 0 12.780031 0 19.170047 6.390015 31.950078h6.390016c6.390016 0 6.390016 0 12.780031 6.390015l6.390016 51.120125c0 6.390016 0 12.780031-6.390016 12.780031h-6.390015v25.560063c0 12.780031 6.390016 44.730109-19.170047 70.290171-31.950078 31.950078-108.630265 31.950078-146.970359 0-25.560062-19.170047-19.170047-57.51014-19.170047-70.290171v-25.560063h-6.390015c-6.390016 0-6.390016-6.390016-6.390016-12.780031l6.390016-51.120125c0-6.390016 6.390016-6.390016 12.780031-6.390015h6.390015c0-12.780031 0-19.170047 6.390016-31.950078 0-6.390016 6.390016-19.170047 19.170047-25.560063 0-12.780031 0-25.560062 6.390015-31.950078-44.730109-6.390016-89.460218-19.170047-134.190327-38.340093-12.780031-6.390016-25.560062-25.560062-19.170047-44.730109 0-19.170047 6.390016-31.950078 6.390016-51.120125 0-12.780031 12.780031-31.950078 25.560062-31.950078 115.020281-19.170047 236.430577-19.170047 351.450858 0 12.780031 0 25.560062 19.170047 25.560062 31.950078 0 19.170047 6.390016 31.950078 6.390016 51.120125-6.390016 12.780031-19.170047 31.950078-31.950078 44.730109zM696.5117 576.49922c-44.730109 19.170047-89.460218 31.950078-134.190327 38.340094 0 12.780031 0 25.560062 6.390015 31.950078 12.780031 6.390016 19.170047 19.170047 19.170047 25.560062 0 12.780031 0 19.170047 6.390016 31.950078h6.390015c6.390016 0 6.390016 0 12.780032 6.390016l6.390015 51.120124C613.441498 768.199688 607.051482 768.199688 600.661466 768.199688h-6.390015v25.560062c0 12.780031 6.390016 44.730109-19.170047 70.290172C543.151326 896 466.471139 896 428.131045 864.049922c-12.780031-19.170047-6.390016-51.120125-6.390015-63.900156v-25.560062h-6.390016c0-6.390016-6.390016-6.390016-6.390016-12.780032l6.390016-51.120124c0-6.390016 6.390016-6.390016 12.780031-6.390016h6.390016c0-12.780031 0-19.170047 6.390015-31.950078 0-6.390016 6.390016-19.170047 19.170047-25.560062 0-12.780031 0-25.560062 6.390016-31.950078-51.120125-6.390016-102.24025-19.170047-140.580343-38.340094-12.780031-6.390016-25.560062-25.560062-25.560063-44.730109 0-19.170047 6.390016-31.950078 6.390016-51.120125 0-12.780031 12.780031-31.950078 25.560062-31.950078 115.020281-19.170047 236.430577-19.170047 351.450858 0 12.780031 0 25.560062 19.170047 25.560063 31.950078 0 19.170047 6.390016 31.950078 6.390015 51.120125 6.390016 19.170047-6.390016 38.340094-19.170047 44.730109z m-44.730109-428.131045l-115.020281 70.290171V352.848674c0 12.780031-12.780031 25.560062-25.560062 25.560062s-25.560062-12.780031-25.560062-25.560062v-134.190328l-115.020281-70.290171c-12.780031-6.390016-19.170047-25.560062-6.390016-38.340094 6.390016-6.390016 12.780031-12.780031 19.170047-12.780031 6.390016 0 6.390016 0 12.780031 6.390016l115.020281 63.900156 115.020281-70.290172c6.390016 0 6.390016-6.390016 12.780031-6.390016s19.170047 6.390016 19.170047 12.780032c6.390016 19.170047 6.390016 38.340094-6.390016 44.730109z"  horiz-adv-x="1024" />

    
    <glyph glyph-name="guochengzhibiao" unicode="&#59491;" d="M931.5 115.2c15.4 0 28 12.5 28 28V803.4c0 15.4-12.5 28-28 28h-839c-15.4 0-28-12.5-28-28v-660.2c0-15.5 12.5-28 28-28H484v-122.9H92.5c-15.4 0-28-12.5-28-28s12.5-28 28-28h839c15.4 0 28 12.5 28 28s-12.5 28-28 28H539.9V115.2h391.6zM426.3 229.7c0 48 39 87 87 87s87-39 87-87c0-21.7-8.2-42.6-22.7-58.5H449c-14.5 15.9-22.7 36.8-22.7 58.5zM120.4 775.4h783.1v-296.7c-76.2 138.2-223.3 232-391.8 232-168.1 0-314.9-93.3-391.2-230.9V775.4z m0-564.1h76v47.5h-76v11.7c1.7 90.2 33.9 173 86.9 238.5l46.2-46.2 33.6 33.6-47.7 47.7c65.2 63.3 152.4 104.2 248.8 109.9v-75.8h47.6V654c96.3-5.9 183.4-46.8 248.5-110.1l-47.5-47.5 33.6-33.6 45.9 45.9c54.2-67.2 86.7-152.6 86.7-245.5h0.5v-4.4h-73.3v-47.5h73.3v-40.1H634.4c8.7 18.1 13.5 38.1 13.5 58.5 0 31.4-10.8 60.3-28.9 83.3l116.4 116.4-33.7 33.6-118.4-118.4c-20.4 12.5-44.4 19.7-70 19.7-74.2 0-134.5-60.3-134.5-134.5 0-20.5 4.7-40.4 13.4-58.5H120.4v40z"  horiz-adv-x="1024" />

    
    <glyph glyph-name="xiezuogongxiang1" unicode="&#59492;" d="M632.49 89.108v28.19c0 7.924 6.422 14.346 14.345 14.346h64.734c79.009 0 143.057 64.064 143.057 143.091 0 79.027-64.048 143.092-143.057 143.092-10.27 0-23.972-2.285-41.109-6.856a7.105 7.105 0 0 0-6.955 1.949 7.105 7.105 0 0 0-1.664 7.025c7.087 22.89 10.633 41.145 10.633 54.762 0 88.846-72.005 160.868-160.824 160.868-88.824 0-160.825-72.022-160.825-160.868 0-13.618 3.542-31.872 10.632-54.762a7.113 7.113 0 0 0-1.663-7.03 7.12 7.12 0 0 0-6.96-1.944c-17.138 4.571-30.84 6.856-41.109 6.856-79.005 0-143.051-64.064-143.051-143.092 0-79.026 64.046-143.091 143.051-143.091h65.628c7.923 0 14.346-6.422 14.346-14.346v-28.19c0-7.923-6.422-14.345-14.346-14.345h-65.628c-110.413 0-199.919 89.527-199.919 199.972 0 104.451 80.06 190.202 182.152 199.193v0.779c0 120.259 97.465 217.75 217.692 217.75 120.228 0 217.692-97.491 217.692-217.75v-0.779c102.088-8.991 182.151-94.742 182.151-199.193 0-110.444-89.511-199.972-199.924-199.972h-64.734c-7.923 0.001-14.345 6.423-14.345 14.345zM481.283 359.716l-71.147-62.694c-12.226-9.889-30.161-8.007-40.063 4.207-9.897 12.213-8.016 30.129 4.211 40.019l113.583 97.019c9.862 10.09 25.927 11.526 37.498 2.819l122.862-99.138c12.568-9.455 15.076-27.298 5.608-39.844-9.469-12.555-27.324-15.06-39.888-5.603l-75.696 63.625v-256.91c0-15.714-12.751-28.452-28.484-28.452-15.729 0-28.484 12.738-28.484 28.452v256.5z m0 0"  horiz-adv-x="1024" />

    
    <glyph glyph-name="xiezuogongxiang2" unicode="&#59493;" d="M632.49 89.108v28.19c0 7.924 6.422 14.346 14.345 14.346h64.734c79.009 0 143.057 64.064 143.057 143.091 0 79.027-64.048 143.092-143.057 143.092-10.27 0-23.972-2.285-41.109-6.856a7.105 7.105 0 0 0-6.955 1.949 7.105 7.105 0 0 0-1.664 7.025c7.087 22.89 10.633 41.145 10.633 54.762 0 88.846-72.005 160.868-160.824 160.868-88.824 0-160.825-72.022-160.825-160.868 0-13.618 3.542-31.872 10.632-54.762a7.113 7.113 0 0 0-1.663-7.03 7.12 7.12 0 0 0-6.96-1.944c-17.138 4.571-30.84 6.856-41.109 6.856-79.005 0-143.051-64.064-143.051-143.092 0-79.026 64.046-143.091 143.051-143.091h65.628c7.923 0 14.346-6.422 14.346-14.346v-28.19c0-7.923-6.422-14.345-14.346-14.345h-65.628c-110.413 0-199.919 89.527-199.919 199.972 0 104.451 80.06 190.202 182.152 199.193v0.779c0 120.259 97.465 217.75 217.692 217.75 120.228 0 217.692-97.491 217.692-217.75v-0.779c102.088-8.991 182.151-94.742 182.151-199.193 0-110.444-89.511-199.972-199.924-199.972h-64.734c-7.923 0.001-14.345 6.423-14.345 14.345zM481.283 359.716l-71.147-62.694c-12.226-9.889-30.161-8.007-40.063 4.207-9.897 12.213-8.016 30.129 4.211 40.019l113.583 97.019c9.862 10.09 25.927 11.526 37.498 2.819l122.862-99.138c12.568-9.455 15.076-27.298 5.608-39.844-9.469-12.555-27.324-15.06-39.888-5.603l-75.696 63.625v-256.91c0-15.714-12.751-28.452-28.484-28.452-15.729 0-28.484 12.738-28.484 28.452v256.5z m0 0"  horiz-adv-x="1024" />

    
    <glyph glyph-name="jurassic_mge-gcwd" unicode="&#59494;" d="M960 182v64h-78.6c-5.1 31.8-17.7 61.2-35.8 86.3l55.6 55.6-45.2 45.2-55.6-55.6c-25.1 18.2-54.5 30.8-86.3 35.9V492h-64v-78.6c-31.8-5.1-61.2-17.7-86.3-35.8l-55.6 55.6L463 388l55.6-55.6c-18.2-25.1-30.8-54.5-35.9-86.3h-78.6v-64h78.6c5.1-31.8 17.7-61.2 35.8-86.3l-55.6-55.6 45.2-45.2 55.6 55.6c25.1-18.2 54.5-30.8 86.3-35.9V-64h64v78.6c31.8 5.1 61.2 17.7 86.3 35.8l55.6-55.6 45.2 45.2-55.6 55.6c18.2 25.1 30.8 54.5 35.9 86.3H960z m-140 32c0-76.1-61.9-138-137.9-138s-137.9 61.9-137.9 138 61.9 138 137.9 138S820 290.1 820 214zM64 832v-785.1h396.5v64H128V768h609v-328.5h64V832zM220 448h228v-64H220z m0-164h164v-64H220zM456.7 627.7l-72.3 55.6c-13.3 10.2-32.3 8.4-43.4-4.1L230 554.3l47.8-42.5L369 614.3l66.5-51.2c10.7-8.2 25.5-8.9 36.8-1.5l156 100.5-34.6 53.9-137-88.3z"  horiz-adv-x="1024" />

    
    <glyph glyph-name="shouye_icon_shoufeiguochengguanli" unicode="&#59495;" d="M720.896 658.432l-122.88-122.88h102.4c20.48 0 32.768-12.288 32.768-32.768s-12.288-32.768-32.768-32.768h-151.552V384h147.456c20.48 0 32.768-12.288 32.768-32.768s-12.288-32.768-32.768-32.768h-147.456v-69.632c0-20.48-12.288-32.768-32.768-32.768s-32.768 12.288-32.768 32.768V318.464h-147.456c-20.48 0-32.768 12.288-32.768 32.768s12.288 32.768 32.768 32.768h147.456V474.112h-147.456c-20.48 0-32.768 12.288-32.768 32.768s12.288 32.768 32.768 32.768h102.4L311.296 662.528c-12.288 12.288-12.288 32.768 0 45.056 12.288 12.288 32.768 12.288 45.056 0L516.096 547.84l151.552 155.648c12.288 12.288 32.768 12.288 45.056 0 12.288-12.288 12.288-32.768 8.192-45.056z m-614.4-204.8c8.192 0 20.48-8.192 24.576-8.192 20.48 0 32.768 12.288 32.768 32.768 0 192.512 159.744 352.256 352.256 352.256 192.512 0 352.256-159.744 352.256-352.256 0-45.056-8.192-94.208-24.576-135.168-8.192-20.48 0-32.768 20.48-45.056h12.288c12.288 0 24.576 8.192 32.768 20.48 20.48 53.248 32.768 102.4 32.768 159.744C929.792 707.584 745.472 896 516.096 896S98.304 707.584 98.304 478.208c0-4.096 8.192-16.384 8.192-24.576z m909.312-331.776l-217.088 159.744c-36.864 24.576-81.92 24.576-114.688-8.192-24.576-24.576-32.768-69.632-20.48-102.4l24.576-45.056H516.096c-135.168 0-258.048 77.824-315.392 192.512-8.192 20.48-24.576 24.576-45.056 12.288-12.288-8.192-20.48-24.576-12.288-45.056 69.632-135.168 212.992-225.28 372.736-225.28h225.28c12.288 0 20.48 8.192 24.576 12.288 8.192 8.192 8.192 20.48 0 32.768L720.896 195.584c-8.192 12.288 0 20.48 8.192 32.768 8.192 8.192 24.576 12.288 32.768 0l204.8-151.552V-66.56H516.096c-196.608 0-376.832 135.168-430.08 319.488-12.288 45.056-20.48 86.016-20.48 131.072 0 20.48-12.288 32.768-32.768 32.768s-32.768-12.288-32.768-32.768c0-49.152 8.192-94.208 20.48-139.264 65.536-217.088 270.336-372.736 491.52-372.736h479.232c20.48 0 32.768 12.288 32.768 32.768V97.28c4.096 12.288-4.096 16.384-8.192 24.576z m0 0"  horiz-adv-x="1028" />

    
    <glyph glyph-name="cooperation" unicode="&#59496;" d="M668.8-71.68c-8.96 0-17.28 6.4-18.56 15.36L598.4 201.6c-1.92 9.6 3.2 18.56 12.8 21.76 120.32 41.6 200.96 154.24 200.96 280.96 0 163.84-133.76 297.6-298.88 297.6-164.48 0-298.88-133.12-298.88-297.6 0-126.72 80.64-239.36 200.96-280.96 8.96-3.2 14.72-12.8 12.8-21.76l-51.84-257.92c-1.92-10.24-12.16-17.28-22.4-14.72-10.24 1.92-17.28 12.16-14.72 22.4l48.64 241.92c-126.72 51.2-211.2 174.08-211.2 311.68-1.28 184.96 149.76 335.36 336 335.36 185.6 0 337.28-150.4 337.28-336 0-137.6-83.84-260.48-211.2-311.68l48.64-241.92c1.92-10.24-4.48-20.48-14.72-22.4h-3.84zM133.76-72.32c-1.28 0-2.56 0-3.84 0.64-10.24 1.92-17.28 12.16-14.72 22.4l33.92 167.04C58.88 155.52 0 243.2 0 341.12c0 113.92 78.08 211.84 189.44 236.8 10.24 2.56 20.48-3.84 23.04-14.72 2.56-10.24-3.84-20.48-14.72-23.04C103.68 519.68 38.4 437.12 38.4 341.12c0-87.04 55.68-165.12 138.24-193.92 8.96-3.2 14.72-12.8 12.8-21.76L152.32-57.6c-1.28-8.32-9.6-14.72-18.56-14.72zM890.24-72.32c-8.96 0-17.28 6.4-18.56 15.36l-37.12 183.04c-1.92 9.6 3.2 18.56 12.8 21.76 82.56 28.8 138.24 106.24 138.24 193.92 0 96-65.28 177.92-159.36 199.68-10.24 2.56-16.64 12.8-14.72 23.04s12.8 16.64 23.04 14.72C945.92 553.6 1024 456.32 1024 342.4c0-97.92-58.88-186.24-148.48-224l33.92-167.04c1.92-10.24-4.48-20.48-14.72-22.4-1.92-1.28-3.2-1.28-4.48-1.28zM512.64 314.24c-96.64 0-175.36 78.08-175.36 174.72 0 10.88 8.32 19.2 19.2 19.2s19.2-8.32 19.2-19.2c0-74.88 61.44-136.32 136.96-136.32 75.52 0 136.96 60.8 136.96 136.32 0 10.88 8.32 19.2 19.2 19.2s19.2-8.32 19.2-19.2c0-96.64-78.72-174.72-175.36-174.72z"  horiz-adv-x="1024" />

    
    <glyph glyph-name="wuyeban-jifeiguochengguanli" unicode="&#59497;" d="M678.8 382.9c18.4 0 33.4 15.2 33.4 34.1s-15 34.1-33.4 34.1H542.6L669 580.4c13 13.3 13 34.9 0 48.3-13 13.3-34.1 13.3-47.2 0L512 516.4 402.2 628.7c-13 13.3-34.1 13.3-47.2 0-13-13.3-13-34.9 0-48.2l126.5-129.4H345.2c-18.4 0-33.4-15.2-33.4-34.1s15-34.1 33.4-34.1h133.4v-62.4H345.2c-18.4 0-33.4-15.2-33.4-34.1 0-18.9 15-34.1 33.4-34.1h133.4V128c0-14.4 15-26.1 33.4-26.1s33.4 11.7 33.4 26.1V252.3h133.4c18.4 0 33.4 15.2 33.4 34.1 0 18.9-15 34.1-33.4 34.1H545.4v62.4h133.4zM888.1 384.1c0-55.9 44.6-101.5 99.5-101.5 20.1 0 36.5-16.6 36.5-37.2v-207.9c0-58.8-46.7-106.4-104.3-106.4H104.3C46.7-68.8 0-21.2 0 37.6v208c0 20.5 16.3 37.2 36.5 37.2 53.9 1.5 96.9 46.5 96.9 101.5s-42.9 99.9-96.9 101.5c-20.1-0.2-36.5 16.5-36.5 37V730.4C0 789.2 46.7 836.8 104.3 836.8h815.3c57.7 0 104.3-47.5 104.3-106.4v-207.9c0-20.5-16.3-37.2-36.5-37.2-54.7 0.2-99.3-45.2-99.3-101.2z m63.1-171.8c-79.2 17.6-135.7 89.1-135.7 171.8 0 82.6 56.4 154.1 135.7 171.8V730.4c0 17.7-14.2 32.1-31.5 32.1H104.3c-17.3 0-31.5-14.4-31.5-32.1v-174.7c79.2-17.6 135.7-89.1 135.7-171.8 0-82.6-56.4-154.1-135.7-171.8v-174.7c0-17.8 14.2-32.2 31.5-32.2h815.3c17.5 0 31.5 14.4 31.5 32.2l0.1 174.9z"  horiz-adv-x="1024" />

    
    <glyph glyph-name="yanfaguocheng" unicode="&#59498;" d="M139.636364 779.636364h744.727272A116.363636 116.363636 0 0 0 1000.727273 663.272727v-558.545454a116.363636 116.363636 0 0 0-116.363637-116.363637H139.636364A116.363636 116.363636 0 0 0 23.272727 104.727273V663.272727A116.363636 116.363636 0 0 0 139.636364 779.636364z m0-46.545455A69.818182 69.818182 0 0 1 69.818182 663.272727v-558.545454A69.818182 69.818182 0 0 1 139.636364 34.909091h744.727272a69.818182 69.818182 0 0 1 69.818182 69.818182V663.272727A69.818182 69.818182 0 0 1 884.363636 733.090909H139.636364zM388.887273 566.923636a23.272727 23.272727 0 1 1-33.978182 31.790546l-186.181818-198.795637a23.272727 23.272727 0 0 1 0.558545-32.395636l186.181818-186.181818a23.272727 23.272727 0 0 1 32.907637 32.954182L218.112 384.465455l170.821818 182.36509zM828.695273 396.101818l-170.775273-182.365091a23.272727 23.272727 0 0 1 33.978182-31.837091l186.181818 198.795637a23.272727 23.272727 0 0 1-0.512 32.395636l-186.181818 186.181818a23.272727 23.272727 0 0 1-32.954182-32.907636l170.263273-170.263273zM565.061818 622.405818L442.833455 136.192a23.272727 23.272727 0 0 1 45.14909-11.357091l122.135273 486.213818a23.272727 23.272727 0 0 1-45.149091 11.357091z"  horiz-adv-x="1024" />

    
    <glyph glyph-name="hexinxiezuoyonghu" unicode="&#59499;" d="M503.466667 853.333333a213.333333 213.333333 0 1 0 0-426.666666 213.333333 213.333333 0 0 0 0 426.666666z m0-68.266666a145.066667 145.066667 0 1 1 0-290.133334 145.066667 145.066667 0 0 1 0 290.133334z m21.333333-836.266667H237.098667c-93.653333 0-168.832 71.125333-168.832 157.866667 0 86.741333 75.178667 157.866667 168.832 157.866666h122.325333v68.266667H237.098667C106.538667 332.8 0 231.978667 0 106.666667s106.538667-226.133333 237.098667-226.133334H524.8v68.266667zM716.8-15.786667l-213.504 240.554667 72.917333 84.565333 118.442667-3.541333 36.693333 64-184.448 3.541333-128.597333-149.162666L716.8-112.213333l300.629333 338.56-124.074666 112.469333-33.408-52.266667 68.224-64.298666zM866.346667 485.546667l59.136-34.133334-170.666667-295.594666-46.634667-12.501334-12.501333 46.634667 12.970667 22.485333zM887.68 522.538667l59.136-34.133334 21.333333 36.949334-59.136 34.133333-1.621333-2.816z"  horiz-adv-x="1024" />

    
    <glyph glyph-name="guochenganquanguanli" unicode="&#59500;" d="M558.299164-113.737224c-9.58166-4.095977-35.69351-14.262776-44.104891-14.262776H512c-10.093657 0.58514-22.893583 4.607974-22.893583 4.607974C73.511077 42.93388 60.857435 304.637528 60.272296 315.901463V700.923263c0 26.623848 18.066182 50.760853 44.178033 59.903658l381.584105 131.656391A67.144759 67.144759 0 0 0 508.342878 895.994149h8.045668c7.314244 0 14.774773-1.023994 22.381587-3.510837l381.43782-131.583249a63.926492 63.926492 0 0 0 43.666036-60.415654V315.974606c-0.073142-10.825081-12.873069-263.312781-405.574825-429.71183zM900.386352 700.923263c0 1.462849-0.58514 2.047988-1.609134 2.486843L517.339398 835.066497h-10.020514L125.734779 703.629534a2.70627 2.70627 0 0 1-1.609134-2.559986v-383.485808c0-4.169119 4.827401-60.927652 51.638562-134.216376 45.128885-70.216742 140.433483-170.495026 336.235793-249.415718 370.832167 149.064291 387.874355 373.757864 388.386352 383.632094V700.923263z m-160.181942-346.695161H553.837475v-179.198976c0-24.063862-16.969046-40.374626-42.056902-40.374627-25.014714 0-42.056903 15.871909-42.056903 40.447769v179.198976H283.576162c-25.087857 0-42.056903 16.310764-42.056902 40.447769 0 24.137005 16.457049 40.447769 42.056902 40.447769h186.220651V614.395758c0 24.137005 17.042188 40.447769 42.056902 40.447769 25.087857 0 42.056903-15.871909 42.056903-40.447769V435.196782h186.293792c25.599854 0 42.5689-16.310764 42.056903-40.447769 0-23.99072-16.457049-40.447769-42.056903-40.447769z"  horiz-adv-x="1024" />

    
    <glyph glyph-name="pingjiaoguanli" unicode="&#59501;" d="M844.26 507.28a27.85 27.85 0 0 1-7.31 9.54V687A116.13 116.13 0 0 1 721 803H300.61a116.13 116.13 0 0 1-116-116v-172a27.52 27.52 0 0 1-4.88-7.08L70.58 281.87a27.85 27.85 0 0 1-1.82-19.43 92.78 92.78 0 0 1-1-13.31V57a92.13 92.13 0 0 1 92-92h704.42a92.13 92.13 0 0 1 92 92V249.11a91.42 91.42 0 0 1-13.89 48.56z m15.9-166.14H837v49.61zM300.61 747H721a60.07 60.07 0 0 0 60-60v-345.86h-76.9a27.89 27.89 0 0 1-8.32-1.26c-0.44-0.13-0.88-0.28-1.31-0.44a28 28 0 0 1-10.17-6.5q-0.94-0.95-1.8-2c-0.51-0.63-1-1.29-1.46-2 0-0.07-0.11-0.13-0.15-0.2a25.53 25.53 0 0 1-1.33-2.19l-0.11-0.19c-0.19-0.36-0.38-0.73-0.56-1.1v-0.1a27.31 27.31 0 0 1-1.82-5 1.21 1.21 0 0 0 0-0.18l-0.27-1.16-0.06-0.35c-0.08-0.37-0.15-0.74-0.2-1.11 0-0.15 0-0.3-0.06-0.44 0-0.34-0.1-0.67-0.13-1a27 27 0 0 1-0.15-2.86v-96.05a36.08 36.08 0 0 0-36-36H383.94a36.07 36.07 0 0 0-36 36v96a27.79 27.79 0 0 1-5.77 17l-0.11 0.15c-0.36 0.47-0.74 0.92-1.13 1.37l-0.21 0.24c-0.39 0.43-0.79 0.85-1.2 1.25l-0.2 0.19a28 28 0 0 1-4 3.22l-0.56 0.37c-0.34 0.21-0.7 0.41-1.05 0.61s-0.59 0.34-0.9 0.49l-1 0.48-0.53 0.25c-0.29 0.14-0.57 0.25-0.86 0.36a27.25 27.25 0 0 1-2.72 0.94c-0.7 0.2-1.42 0.39-2.15 0.53a27.31 27.31 0 0 1-5.61 0.57h-79.3V687a60.07 60.07 0 0 0 59.97 60z m-116-357.74v-48.14h-23.24zM900.21 57a36.07 36.07 0 0 0-36-36H159.83a36.07 36.07 0 0 0-36 36V249.11a36.07 36.07 0 0 0 36 36h132.08v-68a92.13 92.13 0 0 1 92-92h256.16a92.14 92.14 0 0 1 92 92v68h132.11a36 36 0 0 0 29.09-14.78l5.86-12.53v-0.05a35.93 35.93 0 0 0 1.06-8.67zM350.43 339.64c10.74-8.29 24.84-14.59 43.11-19.28 25.87-6.63 60.86-10 104-10s78 3.37 103.67 10c18.17 4.69 32.2 11 42.87 19.35 19.25 15 23.29 33 23.29 45.52v10.53a55.56 55.56 0 0 1-4.46 21.69l66.2 139a28 28 0 0 1-50.56 24.08l-56.65-119c-15.68 10.38-35.34 20.14-56.58 28.11 22.68 28.13 36.39 65.68 36.39 101 0 32.77-10.83 60.64-31.32 80.58-18.9 18.41-44.91 28.54-73.24 28.54s-54.35-10.14-73.21-28.57c-20.41-19.93-31.19-47.78-31.19-80.55 0-35.29 13.49-72.59 35.84-100.55-16.13-6.41-39-16.79-59-30.73-28.31-19.71-42.67-41.13-42.67-63.65v-10.51c-0.04-12.47 4.08-30.54 23.51-45.56z m32.45 55.63c2.31 7.38 27 28.75 75.18 46.17h0.13a47.68 47.68 0 0 1 26.17 24.71c4 8.86 7.33 23.46 0 42.61a27.85 27.85 0 0 1-6.16 9.62c-17.63 18-29.48 47.05-29.48 72.27 0 33.26 18.09 53.12 48.4 53.12 11.39 0 48.56-3.83 48.56-53.12 0-25-11.86-53.95-29.52-72.12a27.93 27.93 0 0 1-7.32-13.73c-4.79-16.31-4.12-30.69 2-42.77a41.53 41.53 0 0 1 23.68-20.89c20.78-6.87 40.29-15.86 55-25.32 18.4-11.82 21.48-19.4 21.84-20.39v-9.91c-1.86-2.16-19.69-19.15-113.83-19.15-94.3 0-112.64 17-114.65 19.24z"  horiz-adv-x="1024" />

    
    <glyph glyph-name="kechengguanli" unicode="&#59502;" d="M613.907 370.669H550.4V520.8c0 25.184-20.41 45.6-45.6 45.6-25.184 0-45.6-20.416-45.6-45.6V324c0-25.184 20.416-45.6 45.6-45.6 3.347 0 6.598 0.384 9.74 1.069h32.174c18.816 47.206 50.598 78.643 50.598 78.643a146.018 146.018 0 0 0 16.595 12.557zM896 226.227c-26.202 43.661-25.78 44.487-25.78 44.487s-90.45-25.364-107.295 61.337h-52.403s-14.452-86.835-106.868-61.126c-26.72-44.525-27.628-45.927-27.654-45.952 0.038-0.026 72.34-50.535 0-119.136l28.077-46.163s79.872 34.45 106.035-59.674h53.024s16.634 86.502 106.458 60.928c25.574 43.66 25.99 44.077 25.99 44.077s-67.814 58.457 0.416 121.222zM735.584 104.902c-33.754 0-61.133 27.36-61.133 61.127s27.373 61.139 61.133 61.139c33.76 0 61.14-27.373 61.14-61.14s-27.38-61.126-61.14-61.126zM896 384c0 212.077-171.923 384-384 384S128 596.077 128 384s171.923-384 384-384c28.928 0 57.056 3.29 84.134 9.37-32.87 33.33-50.528 65.708-59.705 87.795C528.37 96.467 520.243 96 512 96c-159.06 0-288 128.94-288 288s128.94 288 288 288 288-128.94 288-288c0-10.298-0.627-20.448-1.683-30.47 22.317-5.965 57.92-18.484 90.643-42.893A384.83 384.83 0 0 1 896 384z"  horiz-adv-x="1024" />

    
    <glyph glyph-name="guocheng" unicode="&#59941;" d="M128 404.48h363.52V768H128v-363.52z m71.68 291.84h220.16v-220.16H199.68V696.32zM532.48 363.52v-363.52h363.52v363.52h-363.52z m291.84-291.84h-220.16v220.16h220.16v-220.16zM337.92 358.912H266.24v-227.328h225.28v71.68H337.92zM692.736 404.48h71.68V629.76h-227.328v-71.68h155.648z"  horiz-adv-x="1024" />

    
    <glyph glyph-name="guochengjiankong-shigongshuju" unicode="&#59503;" d="M894.7 677.2l-165.9 42.4c-3.3 0.8-6.6 1.3-10 1.3-11.1 0-21.7-4.5-29.4-12.4L550.2 566.2c-0.5 1.4-1.1 2.8-1.7 4.1L507 655.1c-6.8 14.3-21.2 23.3-37 23.4H345.3c-23.1-0.2-41.7-19.2-41.5-42.3V508.8H137.9c-23.1-0.2-41.7-19.1-41.5-42.3V381.6c-0.3-23.1 18.3-42.1 41.4-42.4h166V297H221c-46.8-0.1-84.7-38.1-84.6-84.9 0.1-46.7 37.9-84.6 84.6-84.6h414.8c46.8 0.1 84.7 38.1 84.6 84.9-0.1 46.7-37.9 84.6-84.6 84.6H469.9v42.4h41.5c12.5 0.1 24.2 5.8 32 15.5l205.9 256 124-16.1-42.7-163.1-96.4 22.7 10.6 39.1c3.2 11.2-3.2 22.8-14.4 26.1-11.1 3-22.5-3.4-25.5-14.5 0-0.1-0.1-0.2-0.1-0.3 0 0-36.7-111-22.7-147 6.7-17.4 20.5-31.2 37.9-38.1 21.2-9.7 44.1-15.2 67.5-16.3 11.6-0.3 23.1 2.3 33.6 7.4 16 8.6 27.5 23.7 31.5 41.4l73.3 278.3c2.8 21.2-10.5 41.2-31.2 46.7zM635.8 254.7c23.4 0 42.4-19 42.3-42.4 0-23.4-19-42.3-42.3-42.3H221c-23.4 0-42.4 19-42.3 42.4 0 23.4 19 42.3 42.3 42.3h414.8zM345.3 297v42.3h83V297h-83z m166.1 84.8H137.9v84.8h373.5v-84.8z m0 127.1H345.3V636.1h124.6l41.5-84.8v-42.4z m301.2-145.6c-1-6.1-4.6-11.4-10-14.5-6.9-3.6-25.1-6.9-66.9 10.2-6.7 2.4-12.1 7.7-14.7 14.3-3.7 13.3-3.4 27.4 0.9 40.5l97.9-23-7.2-27.5zM884 636.1l-152.2 19.8-178.9-222.5v75.5l165.9 169.5L884 636.1z"  horiz-adv-x="1024" />

    
    <glyph glyph-name="guochengjiankong-jianduhecha" unicode="&#59504;" d="M312.8 602.2c-118.4 0-214.8-96.4-214.8-215 0-56.5 26.4-139.1 67.2-210.2 46.5-81.1 100.3-127.6 147.5-127.6s101 46.5 147.5 127.6c40.8 71.2 67.2 153.7 67.2 210.2 0.1 118.6-96.2 215-214.6 215z m0-522.1c-66.7 0-184.1 177.5-184.1 307.1 0 101.6 82.6 184.3 184.1 184.3s184.1-82.7 184.1-184.3c0-129.5-117.5-307.1-184.1-307.1z m0 414.6c-59.4 0.1-107.5-48-107.6-107.4s48-107.5 107.4-107.6c59.4-0.1 107.5 48 107.6 107.4v0.1c-0.1 59.3-48.1 107.4-107.4 107.5z m0-184.3c-42.4 0-76.8 34.3-76.9 76.7s34.3 76.8 76.7 76.9c42.4 0 76.8-34.3 76.9-76.7v-0.1c-0.1-42.3-34.4-76.7-76.7-76.8zM773 755.8c-84.7-0.1-153.4-68.8-153.4-153.6 0-77.3 93.2-230.3 153.4-230.3s153.4 153 153.4 230.3c-0.1 84.7-68.7 153.4-153.4 153.6z m0-353.2c-32.2 0-122.7 126-122.7 199.6-0.5 67.8 54.1 123.1 121.8 123.6 67.8 0.5 123.1-54.1 123.6-121.8v-1.8c0-73.6-90.5-199.6-122.7-199.6z m0 276.4c-42.4 0-76.8-34.3-76.9-76.7 0-42.4 34.3-76.8 76.7-76.9 42.4 0 76.8 34.3 76.9 76.7v0.1c0 42.4-34.3 76.7-76.7 76.8z m0-122.9c-25.4 0-46.1 20.6-46.1 46s20.6 46.1 46 46.1 46.1-20.6 46.1-46-20.6-46-46-46.1zM660.1 184c-18.5 15.4-27 31.7-26 49.7 2.1 40.2 51.8 82 70.8 94.7 7.1 4.7 9 14.2 4.3 21.3-4.7 7.1-14.2 9-21.3 4.3-3.3-2.2-81-54.7-84.4-118.5-1.5-28 11-53.2 37-75 56.9-47.5 88.4-95.5 80.4-122.4-6.9-22.9-43.1-31.6-72.2-34.8-132-14.7-236.7 29.1-237.7 29.6-7.8 3.3-16.8-0.4-20.1-8.2-3.2-7.7 0.3-16.7 8-20 3.9-1.7 83.3-35.1 194-35.1 19.8 0 39.6 1.1 59.2 3.3 55.8 6.2 88.8 25.2 98.2 56.5 16.5 55.3-49.4 120.6-90.2 154.6z"  horiz-adv-x="1024" />

    
    <glyph glyph-name="shuzihuaxiezuoshipinyunpingtaix" unicode="&#59505;" d="M915.1 435.781c28.463-34.696 44.098-78.416 44.098-123.34 0-107.096-87.094-194.236-194.133-194.236-16.637 0-30.067 13.437-30.067 30.083s13.43 30.083 30.067 30.083c73.865 0 133.999 60.166 133.999 134.07 0 63.174-44.8 118.426-106.438 131.362l-22.55 4.713-1.303 22.963c-7.918 133.168-118.564 237.455-251.962 237.455-132.596 0-243.243-103.585-251.862-235.85l-1.604-24.468-24.254-3.409c-65.546-9.125-114.957-66.283-114.957-132.766 0-73.904 60.134-134.07 134-134.07 16.636 0 30.066-13.437 30.066-30.083s-13.43-30.083-30.067-30.083C151.094 118.205 64 205.345 64 312.441c0 47.13 17.038 92.555 48.007 128.053 25.357 28.98 58.631 49.637 95.313 59.564 9.822 70.294 43.196 134.973 95.413 184.108C360.863 738.816 436.933 769 516.81 769c157.852 0 290.047-117.925 309.891-272.25 34.377-11.533 65.146-32.691 88.398-60.969zM675.479 285.015L483.896 156.042c-18.783-12.646-44.262-7.67-56.907 11.114A41 41 0 0 0 420 190.053V448c0 22.644 18.356 41 41 41a41 41 0 0 0 22.896-6.989L675.48 353.037c18.783-12.645 23.76-38.123 11.114-56.907a41 41 0 0 0-11.114-11.115zM480 412.305v-186.557l138.56 93.278L480 412.305zM316 59h389c16.569 0 30-13.431 30-30 0-16.569-13.431-30-30-30H316c-16.569 0-30 13.431-30 30 0 16.569 13.431 30 30 30z"  horiz-adv-x="1025" />

    
    <glyph glyph-name="xiezuo-richeng-richengxiaoka-zhuchirenicon" unicode="&#59506;" d="M650.971429 669.257143h-292.571429v-29.257143a36.571429 36.571429 0 0 0-73.142857 0v29.257143h-36.571429a65.828571 65.828571 0 0 1-65.828571-65.828572v-438.857142a65.828571 65.828571 0 0 1 65.828571-65.828572h512a65.828571 65.828571 0 0 1 65.828572 65.828572V603.428571a65.828571 65.828571 0 0 1-65.828572 65.828572h-36.571428v-29.257143a36.571429 36.571429 0 0 0-73.142857 0v29.257143z m73.142857 80.457143h36.571428a146.285714 146.285714 0 0 0 146.285715-146.285715v-438.857142a146.285714 146.285714 0 0 0-146.285715-146.285715h-512a146.285714 146.285714 0 0 0-146.285714 146.285715V603.428571a146.285714 146.285714 0 0 0 146.285714 146.285715h36.571429v36.571428a36.571429 36.571429 0 0 0 73.142857 0V749.714286h292.571429v36.571428a36.571429 36.571429 0 0 0 73.142857 0V749.714286z m-365.714286-329.142857h292.571429a36.571429 36.571429 0 0 0 0-73.142858h-292.571429a36.571429 36.571429 0 0 0 0 73.142858z"  horiz-adv-x="1024" />

    
    <glyph glyph-name="xiezuo-richeng-xiangqing-pinglun" unicode="&#59507;" d="M69.12 408.2176c0 226.3552 198.0416 408.4224 440.832 408.4224 246.5792 0 442.1632-178.9952 440.832-408.7808-0.9216-150.528-83.968-278.1696-232.8576-372.224-97.792-61.696-230.4-107.7248-289.4848-100.2496-43.8784 5.1712-69.12 32.9216-69.12 75.1104v32.6144C188.672 93.696 69.12 241.664 69.12 408.1664z m66.56 0c0-142.848 109.5168-271.0528 264.3968-307.0976l25.7536-5.9904v-84.6336c0-8.0896-0.3072-7.7824 10.7008-9.0624 40.6528-5.12 159.9488 36.2496 245.8624 90.4704 130.9696 82.7392 201.0624 190.464 201.8304 316.3136 1.0752 191.3856-163.328 341.8624-374.272 341.8624-207.2064 0-374.272-153.6-374.272-341.8624zM332.8 442.88h256a33.28 33.28 0 1 1 0 66.56h-256a33.28 33.28 0 1 1 0-66.56zM332.8 289.28H716.8a33.28 33.28 0 0 1 0 66.56H332.8a33.28 33.28 0 1 1 0-66.56z"  horiz-adv-x="1024" />

    
    <glyph glyph-name="chuangjian1" unicode="&#59508;" d="M625.777778 816.355556a34.133333 34.133333 0 0 0 20.024889-6.485334l4.096-3.527111 227.555555-227.555555a34.133333 34.133333 0 0 0 9.614222-18.773334L887.466667 554.666667l0.056889-224.995556a227.555556 227.555556 0 0 0-144.725334-376.547555l2.446222-1.479112-26.225777 0.056889-2.218667-0.056889H341.333333a204.8 204.8 0 0 0-204.515555 193.934223L136.533333 156.444444V611.555556a204.8 204.8 0 0 0 193.934223 204.515555L341.333333 816.355556h284.444445z m91.022222-466.488889a170.666667 170.666667 0 1 1 0-341.333334 170.666667 170.666667 0 0 1 0 341.333334z m-119.466667 398.279111L341.333333 748.088889a136.533333 136.533333 0 0 1-136.192-127.203556L204.8 611.555556v-455.111112a136.533333 136.533333 0 0 1 127.203556-136.192L341.333333 19.911111h212.992A227.555556 227.555556 0 0 0 819.2 382.464L819.2 526.222222 625.777778 526.222222a28.444444 28.444444 0 0 0-27.989334 23.324445L597.333333 554.666667V748.145778z m153.6-460.856889v-85.276445l85.333334-0.056888v-56.888889l-85.333334 0.056889V59.733333h-56.888889v85.390223l-85.333333-0.056889v56.888889l85.333333 0.056888V287.288889h56.888889zM455.111111 418.133333a34.133333 34.133333 0 0 0 5.518222-67.811555L455.111111 349.866667H341.333333a34.133333 34.133333 0 0 0-5.518222 67.811555L341.333333 418.133333h113.777778z m56.888889 170.666667a34.133333 34.133333 0 0 0 5.518222-67.811556L512 520.533333H341.333333a34.133333 34.133333 0 0 0-5.518222 67.811556L341.333333 588.8h170.666667z m142.222222 116.736V583.111111l122.368 0.056889L654.222222 705.536z"  horiz-adv-x="1024" />

    
    <glyph glyph-name="icon-guochengquzhengx" unicode="&#59509;" d="M889.152 739.84v-583.68H547.84v-73.344h134.848v-71.68H341.312v71.68H476.16V156.16H134.848V739.84h754.304z m-71.68-71.68H206.464v-440.32h611.008V668.16z m-377.6-177.984l104.256-95.744-104.192-95.744v59.84H320v71.808h119.872v59.84z m144.192 107.136V537.6H704v-71.872H584.064v-59.84l-104.192 95.68 104.192 95.744z"  horiz-adv-x="1024" />

    
    <glyph glyph-name="pingjiaozonghefenxi" unicode="&#59510;" d="M487.7 249.1L380.1 356.2c-6.5 6.4-9.1 15.7-6.7 24.5 2.3 8.8 9.2 15.6 18 17.9s18.2-0.2 24.6-6.7l89.7-89.3L691 487.1c6.4 6.4 15.7 8.9 24.5 6.5 8.8-2.3 15.6-9.1 17.9-17.8 2.3-8.7-0.2-18-6.6-24.4L523.6 249.1c-4.8-4.7-11.2-7.4-17.9-7.4-6.8 0-13.3 2.7-18 7.4z m352.1-40.9c0 13.9 11.4 25.2 25.4 25.2 14 0 25.4-11.3 25.4-25.2v-151.5c0-37.2-30.3-67.3-67.6-67.3H231.1c-37.4 0-67.6 30.1-67.6 67.3V729.9c0 37.2 30.3 67.3 67.6 67.3h591.8c37.4 0 67.6-30.1 67.6-67.3v-370.3c0-13.9-11.4-25.2-25.4-25.2-14 0-25.4 11.3-25.4 25.2V729.9c0 9.3-7.6 16.8-16.9 16.8H231.1c-9.3 0-16.9-7.5-16.9-16.8v-673.2c0-9.3 7.6-16.8 16.9-16.8h591.8c9.3 0 16.9 7.5 16.9 16.8V208.2z"  horiz-adv-x="1024" />

    
    </font>
</defs>
</svg>
